<svg width="65" height="60" viewBox="0 0 65 60" fill="none" xmlns="http://www.w3.org/2000/svg">
<path d="M8.49341 58L43.6887 1.98438H56.5012L21.3059 58H8.49341ZM11.0715 10.9688C10.1601 11.8802 9.70435 13.026 9.70435 14.4062C9.70435 15.7865 10.1601 16.9323 11.0715 17.8438C11.983 18.7552 13.1288 19.2109 14.509 19.2109C15.8892 19.2109 17.0351 18.7552 17.9465 17.8438C18.858 16.9323 19.3137 15.7865 19.3137 14.4062C19.3137 13.026 18.858 11.8802 17.9465 10.9688C17.0351 10.0573 15.8892 9.60156 14.509 9.60156C13.1288 9.60156 11.983 10.0573 11.0715 10.9688ZM24.6262 4.91406C27.4648 7.6224 28.884 10.7865 28.884 14.4062C28.884 18.026 27.4648 21.2031 24.6262 23.9375C21.8137 26.6458 18.4283 28 14.47 28C10.5377 28 7.15226 26.6458 4.31372 23.9375C1.50122 21.2031 0.0949707 18.026 0.0949707 14.4062C0.0949707 10.7865 1.50122 7.6224 4.31372 4.91406C7.15226 2.17969 10.5377 0.8125 14.47 0.8125C18.4283 0.8125 21.8137 2.17969 24.6262 4.91406ZM47.0481 42.1797C46.1627 43.0651 45.72 44.2109 45.72 45.6172C45.72 46.9974 46.1627 48.1432 47.0481 49.0547C47.9596 49.9401 49.1054 50.3828 50.4856 50.3828C51.8918 50.3828 53.0377 49.9401 53.9231 49.0547C54.8346 48.1432 55.2903 46.9974 55.2903 45.6172C55.2903 44.2109 54.8346 43.0651 53.9231 42.1797C53.0377 41.2682 51.8918 40.8125 50.4856 40.8125C49.1054 40.8125 47.9596 41.2682 47.0481 42.1797ZM60.6418 36.0859C63.4804 38.7943 64.8997 41.9714 64.8997 45.6172C64.8997 49.237 63.4804 52.4141 60.6418 55.1484C57.8293 57.8568 54.4439 59.2109 50.4856 59.2109C46.5533 59.2109 43.1679 57.8568 40.3293 55.1484C37.5168 52.4141 36.1106 49.237 36.1106 45.6172C36.1106 41.9714 37.5168 38.7943 40.3293 36.0859C43.1679 33.3516 46.5533 31.9844 50.4856 31.9844C54.4439 31.9844 57.8293 33.3516 60.6418 36.0859Z" fill="white" fill-opacity="0.52"/>
</svg>
