<svg width="60" height="60" viewBox="0 0 60 60" fill="none" xmlns="http://www.w3.org/2000/svg">
<path d="M29.6436 11.7771C19.849 11.7771 11.8799 19.7462 11.8799 29.5409C11.8799 39.3355 19.849 47.3046 29.6436 47.3046C39.4383 47.3046 47.4074 39.3355 47.4074 29.5409C47.4074 19.7462 39.4383 11.7771 29.6436 11.7771ZM29.6436 45.5737C20.8033 45.5737 13.6108 38.3812 13.6108 29.5409C13.6108 20.7005 20.8033 13.508 29.6436 13.508C38.484 13.508 45.6765 20.7005 45.6765 29.5409C45.6765 38.3812 38.484 45.5737 29.6436 45.5737Z" fill="#011634"/>
<path d="M29.6436 43.7791C31.7212 43.7791 33.7242 43.3414 35.5973 42.4782C36.0314 42.2781 36.221 41.764 36.021 41.3299C35.8209 40.8958 35.3068 40.7061 34.8727 40.9062C33.2286 41.664 31.4693 42.0481 29.6437 42.0481C22.7471 42.0481 17.1363 36.4373 17.1363 29.5408C17.1363 22.6442 22.7471 17.0334 29.6437 17.0334C36.5404 17.0334 42.151 22.6444 42.151 29.5409C42.151 33.325 40.4645 36.8654 37.5238 39.2542C37.1527 39.5556 37.0964 40.1006 37.3977 40.4716C37.6989 40.8426 38.2441 40.8991 38.6151 40.5977C41.9622 37.8788 43.8819 33.8488 43.8819 29.5409C43.8819 21.6899 37.4946 15.3026 29.6436 15.3026C21.7926 15.3026 15.4053 21.6899 15.4053 29.5409C15.4053 37.3919 21.7926 43.7791 29.6436 43.7791Z" fill="#011634"/>
<path d="M29.6436 25.1386C27.2157 25.1386 25.2413 27.113 25.2413 29.5409C25.2413 31.9688 27.2157 33.9432 29.6436 33.9432C32.0715 33.9432 34.0459 31.9688 34.0459 29.5409C34.0459 27.113 32.0715 25.1386 29.6436 25.1386ZM29.6436 32.2123C28.17 32.2123 26.9722 31.0145 26.9722 29.5409C26.9722 28.0673 28.17 26.8695 29.6436 26.8695C31.1172 26.8695 32.315 28.0673 32.315 29.5409C32.315 31.0145 31.1172 32.2123 29.6436 32.2123Z" fill="#011634"/>
<path d="M59.1633 30.613C59.1759 30.2565 59.1845 29.8994 59.1845 29.5409C59.1845 21.6502 56.1117 14.2319 50.5323 8.65236C44.9526 3.07283 37.5343 0 29.6437 0C24.4738 0 19.3861 1.35519 14.9306 3.91913C14.5163 4.15753 14.3737 4.68661 14.6121 5.10088C14.8505 5.51514 15.3796 5.65765 15.7938 5.41937C16.7493 4.86963 17.7359 4.37955 18.747 3.94948L19.6895 6.4413C19.8177 6.78021 20.1399 6.98884 20.4819 6.98884C20.5815 6.98884 20.6827 6.97119 20.7814 6.9338C21.219 6.76832 21.4395 6.2794 21.274 5.84194L20.3252 3.33385C23.301 2.27822 26.4556 1.73091 29.6437 1.73091C29.7025 1.73091 29.7611 1.73264 29.8201 1.7331L29.7259 4.24177C29.7082 4.71408 30.0767 5.11126 30.549 5.12892C30.56 5.12938 30.5709 5.1295 30.5817 5.1295C31.0395 5.1295 31.4189 4.76716 31.4363 4.30593L31.5306 1.79519C34.5765 1.99793 37.5274 2.68891 40.2908 3.83339L39.25 6.14069C39.0557 6.57146 39.2474 7.07827 39.6782 7.27259C39.7925 7.32418 39.912 7.34852 40.0296 7.34852C40.3556 7.34852 40.6673 7.16101 40.8101 6.84448L41.85 4.53914C44.5787 5.87413 47.0974 7.66516 49.3084 9.87623C49.3505 9.91835 49.3913 9.96162 49.4332 10.0041L47.587 11.7168C47.2404 12.0381 47.2201 12.5796 47.5416 12.9261C47.7102 13.1078 47.9393 13.1998 48.1691 13.1998C48.3774 13.1998 48.5862 13.1242 48.7508 12.9714L50.5984 11.2575C52.6094 13.5556 54.2075 16.1317 55.3522 18.8962L52.9786 19.794C52.5367 19.9612 52.3139 20.4551 52.4811 20.8972C52.6105 21.2395 52.9359 21.4504 53.2814 21.4504C53.3821 21.4504 53.4844 21.4325 53.5841 21.3947L55.9553 20.4978C56.9397 23.3697 57.4536 26.4157 57.4536 29.5409C57.4536 29.6001 57.4518 29.6588 57.4514 29.7179L55.2292 29.6346C54.7533 29.6168 54.3499 29.9894 54.3319 30.467C54.314 30.9446 54.6867 31.3463 55.1643 31.3643L57.3881 31.4478C57.1801 34.5388 56.4678 37.5312 55.2904 40.3294C55.2818 40.3251 55.2737 40.3203 55.2648 40.3163L52.4955 39.067C52.0689 38.8748 51.5675 39.0645 51.3751 39.4908C51.1828 39.9172 51.3726 40.4188 51.799 40.6112L54.5683 41.8605C54.5743 41.8632 54.5805 41.865 54.5865 41.8675C53.2579 44.5498 51.4867 47.027 49.3082 49.2055C49.2075 49.3063 49.1049 49.4045 49.003 49.5035L46.9764 47.3189C46.6585 46.9761 46.1225 46.9558 45.7796 47.2741C45.4366 47.5922 45.4165 48.1281 45.7347 48.471L47.7538 50.6476C45.4215 52.6551 42.8069 54.2388 40.0055 55.3625L38.9816 52.6557C38.8161 52.2181 38.3269 51.9977 37.8897 52.1632C37.4523 52.3287 37.2316 52.8176 37.3972 53.255L38.4151 55.9459C35.623 56.8703 32.6703 57.3508 29.6437 57.3508C29.4756 57.3508 29.3081 57.3477 29.1405 57.3447L29.2439 54.588C29.2615 54.1205 28.8967 53.7274 28.4294 53.7098C27.9624 53.6918 27.5688 54.057 27.5512 54.5245L27.4484 57.2648C24.4112 57.0291 21.473 56.3049 18.724 55.1315L19.8172 52.7084C20.0095 52.282 19.8198 51.7804 19.3934 51.5881C18.9671 51.3957 18.4654 51.5854 18.2731 52.0118L17.1866 54.4201C14.5542 53.0988 12.1223 51.3487 9.97901 49.2054C9.88462 49.111 9.79277 49.0149 9.69999 48.9195L11.5652 47.1891C11.9082 46.871 11.9283 46.3351 11.6102 45.9921C11.2921 45.6492 10.7562 45.6291 10.4132 45.9473L8.55447 47.6716C6.58054 45.3827 5.01476 42.8215 3.89232 40.078L6.22848 39.1943C6.66605 39.0288 6.88657 38.5399 6.72109 38.1024C6.55562 37.665 6.06681 37.4444 5.62923 37.6099L3.30012 38.491C2.33647 35.6463 1.83369 32.6324 1.83369 29.5409C1.83369 29.4819 1.83589 29.4234 1.83623 29.3644L4.2962 29.4568C4.30705 29.4572 4.31778 29.4573 4.32851 29.4573C4.78167 29.4573 5.15727 29.0987 5.17435 28.6421C5.19189 28.1746 4.82713 27.7815 4.35979 27.7639L1.89693 27.6715C2.0931 24.6695 2.76412 21.7675 3.9004 19.0034L6.17586 20.0299C6.28894 20.0809 6.40722 20.105 6.52365 20.105C6.84641 20.105 7.15486 19.9194 7.29622 19.606C7.48858 19.1796 7.29887 18.678 6.87249 18.4857L4.59207 17.4569C4.66177 17.3129 4.72997 17.1684 4.80221 17.0254C6.12439 14.4064 7.87815 11.9922 9.95732 9.9045L11.6952 11.7778C11.8621 11.9577 12.0889 12.0488 12.3163 12.0488C12.5224 12.0488 12.7291 11.974 12.8921 11.8227C13.2351 11.5046 13.2552 10.9687 12.9371 10.6257L11.1889 8.74121C11.6937 8.29233 12.2127 7.85983 12.7485 7.44949C13.128 7.15882 13.1999 6.61566 12.9093 6.23612C12.6187 5.85659 12.0754 5.78482 11.696 6.07538C8.17079 8.7756 5.25282 12.2924 3.25719 16.2453C1.16395 20.3913 0.102783 24.8645 0.102783 29.5409C0.102783 37.4315 3.1755 44.8499 8.75503 50.4295C14.3346 56.0089 21.753 59.0818 29.6437 59.0818C37.5343 59.0818 44.9526 56.0089 50.5323 50.4295C55.8418 45.12 58.8791 38.145 59.1609 30.6827C59.1618 30.6712 59.1634 30.6599 59.1639 30.6482C59.1642 30.6363 59.1634 30.6248 59.1633 30.613Z" fill="#011634"/>
<path d="M29.6436 18.8854C28.3028 18.8854 27.2123 19.9758 27.2123 21.3167C27.2123 22.6565 28.3028 23.7469 29.6436 23.7469C30.9845 23.7469 32.075 22.6565 32.075 21.3167C32.075 19.9758 30.9845 18.8854 29.6436 18.8854ZM29.6436 22.016C29.2571 22.016 28.9432 21.7021 28.9432 21.3167C28.9432 20.9302 29.2571 20.6163 29.6436 20.6163C30.0302 20.6163 30.3441 20.9302 30.3441 21.3167C30.3441 21.7021 30.0302 22.016 29.6436 22.016Z" fill="#011634"/>
<path d="M37.1778 22.0068C36.2304 21.0583 34.6876 21.0583 33.7402 22.0068C33.2809 22.4649 33.0282 23.0765 33.0282 23.725C33.0282 24.3747 33.2809 24.9851 33.7402 25.4444C34.2145 25.9187 34.8364 26.1552 35.4596 26.1552C36.0815 26.1552 36.7047 25.9187 37.1778 25.4444C37.637 24.9851 37.8898 24.3747 37.8898 23.725C37.8898 23.0753 37.637 22.4649 37.1778 22.0068ZM35.4596 24.4255C35.073 24.4255 34.7591 24.1116 34.7591 23.725C34.7591 23.3384 35.073 23.0246 35.4596 23.0246C35.8461 23.0246 36.16 23.3384 36.16 23.725C36.16 24.1116 35.8461 24.4255 35.4596 24.4255Z" fill="#011634"/>
<path d="M37.8677 27.1095C36.528 27.1095 35.4364 28.2 35.4364 29.5409C35.4364 30.8818 36.528 31.9722 37.8677 31.9722C39.2086 31.9722 40.2991 30.8818 40.2991 29.5409C40.2991 28.2 39.2086 27.1095 37.8677 27.1095ZM37.8677 30.2413C37.4812 30.2413 37.1673 29.9274 37.1673 29.5409C37.1673 29.1543 37.4812 28.8404 37.8677 28.8404C38.2543 28.8404 38.5682 29.1543 38.5682 29.5409C38.5682 29.9274 38.2543 30.2413 37.8677 30.2413Z" fill="#011634"/>
<path d="M37.1778 33.6374C36.2304 32.69 34.6876 32.69 33.7402 33.6374C33.2809 34.0966 33.0282 34.7071 33.0282 35.3567C33.0282 36.0052 33.2809 36.6168 33.7402 37.0749C34.2145 37.5492 34.8364 37.7858 35.4596 37.7858C36.0815 37.7858 36.7047 37.5492 37.1778 37.0749C37.637 36.6168 37.8898 36.0052 37.8898 35.3567C37.8898 34.7071 37.637 34.0966 37.1778 33.6374ZM35.4596 36.0572C35.073 36.0572 34.7591 35.7433 34.7591 35.3567C34.7591 34.9702 35.073 34.6563 35.4596 34.6563C35.8461 34.6563 36.1588 34.9702 36.1588 35.3567C36.1588 35.7433 35.8461 36.0572 35.4596 36.0572Z" fill="#011634"/>
<path d="M29.6436 35.3348C28.3028 35.3337 27.2123 36.4253 27.2123 37.765C27.2123 39.1059 28.3028 40.1964 29.6436 40.1964C30.9845 40.1964 32.075 39.1059 32.075 37.765C32.075 36.4253 30.9845 35.3348 29.6436 35.3348ZM29.6436 38.4655C29.2571 38.4655 28.9432 38.1516 28.9432 37.765C28.9432 37.3796 29.2571 37.0657 29.6436 37.0657C30.0302 37.0657 30.3441 37.3796 30.3441 37.765C30.3441 38.1516 30.0302 38.4655 29.6436 38.4655Z" fill="#011634"/>
<path d="M25.5472 33.6374C25.0879 33.1781 24.4775 32.9254 23.8278 32.9254C23.1793 32.9254 22.5677 33.1781 22.1096 33.6374C21.1611 34.5848 21.1611 36.1276 22.1096 37.075C22.5677 37.5342 23.1793 37.7869 23.8278 37.7869C24.4775 37.7869 25.0879 37.5342 25.5472 37.075C26.0065 36.6168 26.2592 36.0053 26.2592 35.3567C26.2592 34.7071 26.0065 34.0966 25.5472 33.6374ZM23.8278 36.056C23.4412 36.056 23.1285 35.7433 23.1285 35.3567C23.1285 34.9702 23.4412 34.6563 23.8278 34.6563C24.2144 34.6563 24.5283 34.9702 24.5283 35.3567C24.5283 35.7433 24.2144 36.056 23.8278 36.056Z" fill="#011634"/>
<path d="M21.4195 27.1095C20.0786 27.1095 18.9882 28.2 18.9882 29.5409C18.9882 30.8818 20.0786 31.9722 21.4195 31.9722C22.7592 31.9722 23.8497 30.8818 23.8497 29.5409C23.8497 28.2 22.7592 27.1095 21.4195 27.1095ZM21.4195 30.2413C21.0329 30.2413 20.7191 29.9274 20.7191 29.5409C20.7191 29.1543 21.0329 28.8404 21.4195 28.8404C21.8061 28.8404 22.12 29.1543 22.12 29.5409C22.12 29.9274 21.8061 30.2413 21.4195 30.2413Z" fill="#011634"/>
<path d="M25.5472 22.0068C25.0879 21.5475 24.4775 21.2937 23.8278 21.2937C23.1793 21.2948 22.5677 21.5475 22.1096 22.0068C21.1611 22.9542 21.1611 24.497 22.1096 25.4444C22.5677 25.9037 23.1793 26.1564 23.8278 26.1564C24.4775 26.1564 25.0879 25.9037 25.5472 25.4444C26.0065 24.9851 26.2592 24.3747 26.2592 23.725C26.2592 23.0754 26.0065 22.4649 25.5472 22.0068ZM23.8278 24.4255C23.4412 24.4255 23.1285 24.1116 23.1285 23.725C23.1285 23.3385 23.4412 23.0246 23.8278 23.0246C24.2144 23.0246 24.5283 23.3385 24.5283 23.725C24.5283 24.1116 24.2144 24.4255 23.8278 24.4255Z" fill="#011634"/>
</svg>
