<svg width="70" height="67" viewBox="0 0 70 67" fill="none" xmlns="http://www.w3.org/2000/svg">
<path d="M68.9675 29.2181C68.3851 28.972 67.7319 29.1138 67.3039 29.5797C65.4701 31.5757 63.1149 34.355 62.3093 36.2615C61.2599 38.7453 61.1891 41.0313 62.0099 42.3217C61.7584 42.7786 61.4966 43.2301 61.2231 43.6748C60.9955 41.6942 59.9908 38.8214 59.1414 36.6592C58.914 36.0808 58.3618 35.7185 57.7453 35.7389C57.1244 35.7581 56.5998 36.1526 56.4089 36.744C55.6207 39.1848 54.6939 42.506 54.7547 44.4675C54.8264 46.7837 55.5275 48.6441 56.5686 49.5685C56.5225 49.6144 56.477 49.6614 56.4308 49.707C55.5594 49.9791 54.9331 50.4943 54.6757 51.2325C54.6633 51.2679 54.6538 51.3036 54.6433 51.3392C54.5594 51.4099 54.4749 51.4802 54.39 51.5502C54.262 50.8009 54.0239 49.9974 53.6699 49.1712C52.8969 47.367 50.6548 44.7475 48.9101 42.8677C48.4875 42.4123 47.845 42.2761 47.2742 42.5208C46.7033 42.7654 46.3589 43.3244 46.3973 43.9446C46.5548 46.5045 46.905 49.9347 47.6778 51.7387C48.22 53.0039 48.9102 54.0377 49.6551 54.7701C49.4734 54.8701 49.2911 54.9684 49.1082 55.0641C48.4697 55.1597 47.9929 55.346 47.6364 55.5699V54.5086C47.6364 53.3199 46.6691 52.3526 45.4803 52.3526H44.2415C44.2774 51.6695 43.9799 51.0114 43.4071 50.5771L40.7069 48.5305C39.803 47.8455 39.2633 46.7594 39.2633 45.6253V41.73C42.4197 40.7975 45.1641 38.7507 46.9818 35.8704L47.11 35.6672H49.4274C52.0821 35.6672 54.7088 34.7834 56.8236 33.1787L64.4166 27.4171C68.299 24.4712 69.8155 19.4048 68.1902 14.8103C66.6369 10.4189 62.4636 7.43124 57.8054 7.37578C56.7537 7.36339 55.7315 7.36164 54.7551 7.37012V2.93203C54.7551 1.72066 53.7696 0.735196 52.5582 0.735196H28.1294C27.5733 0.735196 27.1224 1.18606 27.1224 1.7422C27.1224 2.29834 27.5731 2.74921 28.1294 2.74921H52.5581C52.659 2.74921 52.7411 2.83133 52.7411 2.93216V15.0721C52.7411 20.2392 51.2835 25.28 48.526 29.6496L45.2785 34.7954C43.1084 38.2344 39.3921 40.2826 35.3288 40.2826C35.31 40.2826 35.291 40.2826 35.2719 40.2825C31.1865 40.2633 27.4652 38.1769 25.3173 34.7016L22.1496 29.5758C19.481 25.2578 18.0705 20.2922 18.0705 15.2163V2.93203C18.0705 2.83119 18.1527 2.74907 18.2536 2.74907H23.4105C23.9666 2.74907 24.4175 2.29821 24.4175 1.74207C24.4175 1.18593 23.9668 0.735062 23.4105 0.735062H18.2536C17.0423 0.735062 16.0567 1.72053 16.0567 2.9319V7.36972C15.0812 7.3611 14.0591 7.36299 13.0064 7.37551C8.34822 7.43097 4.1748 10.4186 2.62162 14.81C0.996275 19.4045 2.51284 24.4708 6.3952 27.4168L13.9883 33.1784C16.103 34.7832 18.7297 35.667 21.3844 35.667H23.5466L23.6042 35.7601C25.3694 38.6164 28.0426 40.6698 31.1333 41.6495V45.6249C31.1333 46.759 30.5936 47.8451 29.6897 48.5303L26.9894 50.5768C26.4166 51.011 26.1189 51.6692 26.155 52.3523H25.3315C24.1427 52.3523 23.1754 53.3196 23.1754 54.5083V55.5696C22.8185 55.3454 22.3412 55.159 21.7017 55.0635C21.5195 54.9682 21.3378 54.8697 21.1563 54.7699C21.9013 54.0376 22.5917 53.0036 23.1337 51.7384C23.9066 49.9344 24.2568 46.5043 24.4143 43.9443C24.4525 43.3241 24.1083 42.7653 23.5373 42.5205C22.9662 42.2759 22.3242 42.412 21.9015 42.8675C20.1568 44.747 17.9149 47.3664 17.1416 49.1708C16.7875 49.997 16.5494 50.8007 16.4214 51.5502C16.3364 51.4801 16.252 51.4092 16.168 51.3383C16.1576 51.3029 16.1481 51.2673 16.1358 51.2321C15.8784 50.4938 15.2521 49.9787 14.3807 49.7065C14.3345 49.661 14.2892 49.6139 14.2431 49.568C15.2839 48.6435 15.985 46.7829 16.0568 44.4671C16.1176 42.5056 15.1909 39.1844 14.4026 36.7436C14.2117 36.1523 13.6871 35.7578 13.0662 35.7386C12.4499 35.718 11.8974 36.0805 11.6701 36.659C10.8206 38.8215 9.81565 41.695 9.58827 43.6756C9.3147 43.2308 9.05313 42.7787 8.80151 42.3216C9.62233 41.0312 9.55151 38.7452 8.50197 36.2612C7.6965 34.3548 5.34134 31.5754 3.50746 29.5794C3.07948 29.1136 2.42641 28.9715 1.84388 29.2178C1.26135 29.4641 0.907961 30.0312 0.943771 30.6625C1.09671 33.3689 1.44795 36.9951 2.25328 38.9012C3.42251 41.6686 5.26232 43.3955 6.89789 43.3955C6.96171 43.3955 7.02511 43.3916 7.08825 43.3863C7.92348 44.8927 8.8734 46.341 9.91877 47.6979C9.95795 47.7486 10.0018 47.7932 10.048 47.8344C10.3346 48.6056 10.7312 49.2213 11.2111 49.6318C10.6769 49.7304 10.1196 49.8775 9.54828 50.0767C7.69488 50.723 4.92642 52.7783 2.93045 54.3884C2.44674 54.7785 2.26634 55.4097 2.47084 55.9964C2.73524 56.8255 3.58851 57.0474 4.37446 56.9721C6.86424 56.9721 9.96966 56.8339 11.6945 56.2324H11.6946C13.5499 55.5855 14.9562 54.6049 15.6887 53.5472C15.9533 53.7565 16.2204 53.9616 16.4889 54.1609C16.6738 54.7917 17.0005 55.2921 17.4636 55.6132C15.6119 56.2924 12.8994 58.3074 10.9344 59.8925C10.4508 60.2827 10.2706 60.9139 10.475 61.5004C10.7395 62.3296 11.5929 62.5513 12.3785 62.4761C14.8683 62.4761 17.9739 62.3378 19.6986 61.7363C21.0533 61.2639 22.2538 60.5618 23.0788 59.7592C23.1119 59.727 23.1434 59.695 23.1748 59.6631V64.0371C23.1748 65.2258 24.1421 66.1931 25.3308 66.1931H38.1888C38.745 66.1931 39.1958 65.7422 39.1958 65.1861C39.1958 64.63 38.7451 64.1791 38.1888 64.1791H25.3308C25.2525 64.1791 25.1886 64.1153 25.1886 64.0369V54.5078C25.1886 54.4295 25.2523 54.3656 25.3308 54.3656H45.4794C45.5577 54.3656 45.6216 54.4295 45.6216 54.5078V64.0369C45.6216 64.1153 45.5579 64.1791 45.4794 64.1791H43.0474C42.4912 64.1791 42.0404 64.63 42.0404 65.1861C42.0404 65.7422 42.4911 66.1931 43.0474 66.1931H45.4794C46.6681 66.1931 47.6354 65.2258 47.6354 64.0371V59.6631C47.6668 59.695 47.6983 59.727 47.7314 59.7592C48.5564 60.5618 49.7569 61.2639 51.1116 61.7363H51.1115C52.8366 62.3378 55.9419 62.4761 58.4317 62.4761C59.2173 62.5515 60.0711 62.3293 60.3351 61.5004C60.5396 60.9139 60.3594 60.2827 59.8757 59.8925C57.9108 58.3075 55.1983 56.2924 53.3467 55.6134C53.8099 55.292 54.1368 54.7912 54.3217 54.1598C54.5904 53.9604 54.8577 53.7566 55.1219 53.5478C55.8545 54.6053 57.2607 55.5856 59.1157 56.2325H59.1158C60.8409 56.834 63.9462 56.9723 66.4359 56.9723C67.2216 57.0477 68.0755 56.8254 68.3395 55.9965C68.544 55.4099 68.3636 54.7788 67.8799 54.3887C65.8839 52.7784 63.1154 50.7232 61.2619 50.0768C60.6907 49.8777 60.1335 49.7306 59.5993 49.6319C60.0672 49.2315 60.4556 48.6357 60.7405 47.8911C60.744 47.8866 60.7482 47.8828 60.7517 47.8784C61.8532 46.4685 62.8498 44.9594 63.7219 43.3865C63.7852 43.3917 63.8488 43.3956 63.9127 43.3956C65.5483 43.3956 67.388 41.6688 68.5573 38.9014C69.3628 36.9952 69.714 33.369 69.8668 30.6628C69.9033 30.0314 69.55 29.4642 68.9675 29.2181ZM50.005 31.0792C51.4691 30.9668 52.8919 30.4314 54.064 29.542L57.1135 27.2279C57.5566 26.8918 57.6433 26.2601 57.307 25.817C56.971 25.3741 56.3396 25.2874 55.8962 25.6236L52.8467 27.9377C52.3987 28.2776 51.9005 28.5466 51.3747 28.7394C53.5913 24.5338 54.7547 19.8535 54.7547 15.072V13.9497C55.7074 13.9407 56.7025 13.9418 57.7268 13.9539C59.6382 13.9766 61.3505 15.2024 61.9878 17.0041C62.6546 18.889 62.0324 20.9675 60.4396 22.1762L59.3502 23.0029C58.9072 23.3391 58.8205 23.9708 59.1566 24.4138C59.3548 24.6749 59.6553 24.8122 59.9595 24.8122C60.1716 24.8122 60.3855 24.7454 60.5674 24.6073L61.6568 23.7807C63.9507 22.0402 64.8465 19.0471 63.8862 16.3327C62.9686 13.7384 60.5028 11.9733 57.7506 11.9404C56.7188 11.9282 55.7154 11.927 54.7546 11.936V9.384C55.7223 9.37538 56.7363 9.377 57.781 9.38952C61.5982 9.43502 65.0183 11.8833 66.2912 15.4818C67.623 19.2469 66.3803 23.3986 63.1988 25.8127L55.6057 31.5743C53.839 32.9149 51.6446 33.6532 49.4269 33.6532H48.3803L50.005 31.0792ZM19.3424 28.7028C18.8498 28.5124 18.3834 28.2555 17.9647 27.9378L10.3718 22.1762C8.77903 20.9677 8.15678 18.8892 8.82359 17.0041C9.46091 15.2026 11.1732 13.9768 13.0845 13.954C14.1086 13.9419 15.1038 13.941 16.0567 13.95V15.2161C16.0565 19.9243 17.1875 24.5433 19.3424 28.7028ZM21.3842 33.6531C19.1664 33.6531 16.9721 32.9148 15.2054 31.5742L7.61235 25.8126C4.43086 23.3985 3.18813 19.2469 4.51999 15.4816C5.79301 11.8832 9.21293 9.43489 13.0301 9.38938C14.0755 9.377 15.0896 9.37525 16.0565 9.38386V11.9358C15.095 11.9268 14.0919 11.9279 13.0604 11.9402C10.3084 11.973 7.84257 13.7381 6.92495 16.3323C5.96466 19.0468 6.8606 22.04 9.15437 23.7804L16.7473 29.542C17.885 30.4054 19.2792 30.9413 20.706 31.0707L22.3018 33.6531H21.3842ZM18.9927 49.964C19.4142 48.9804 20.5895 47.3725 22.2833 45.4473C22.0576 48.0017 21.704 49.9619 21.2827 50.9453C20.2942 53.2523 18.9245 54.0969 18.6311 53.9712C18.3367 53.845 18.004 52.2715 18.9927 49.964ZM11.5538 44.3278C11.5869 43.2584 12.0939 41.3323 12.9677 38.9214C13.6905 41.3819 14.0771 43.3357 14.044 44.4049C13.9665 46.9045 13.0078 48.1903 12.6843 48.1902C12.6831 48.1902 12.6817 48.1902 12.6806 48.1902C12.3606 48.1804 11.4763 46.8369 11.5538 44.3278ZM4.10843 38.1177C3.65568 37.0462 3.28412 34.8942 3.05969 32.0949C4.91027 34.207 6.1942 35.9735 6.64695 37.0451C7.68573 39.504 7.34539 41.2112 6.97705 41.3668C6.60858 41.522 5.14748 40.5764 4.10843 38.1177ZM11.0319 54.331C10.0216 54.6834 8.04208 54.9002 5.47785 54.9484C7.51569 53.392 9.20122 52.331 10.2116 51.9787C11.2248 51.6255 12.0873 51.5039 12.7513 51.5039C13.6408 51.5039 14.1739 51.7224 14.2342 51.8955C14.3396 52.1976 13.4022 53.5046 11.0319 54.331ZM21.675 58.3161C21.0653 58.9093 20.1035 59.4629 19.0362 59.835H19.0361C18.026 60.1873 16.0462 60.4042 13.4822 60.4524C15.5202 58.896 17.2058 57.8348 18.2161 57.4826C19.2858 57.122 20.2453 56.9488 21.2271 57.0316C21.9121 57.1008 22.2085 57.3131 22.2386 57.3993C22.2686 57.4855 22.1686 57.8362 21.675 58.3161ZM28.1732 52.2877C28.1514 52.2231 28.1804 52.2012 28.2057 52.1819L30.9061 50.1353C32.3093 49.0717 33.1471 47.3857 33.1471 45.625V42.125C33.8396 42.2342 34.546 42.293 35.2623 42.2964C35.2849 42.2964 35.3065 42.2965 35.329 42.2965C35.9779 42.2965 36.6188 42.2503 37.2491 42.163V45.625C37.2491 47.3858 38.0869 49.072 39.4901 50.1353L42.1903 52.1819C42.2158 52.2012 42.2447 52.2231 42.2231 52.2877C42.2012 52.3523 42.1652 52.3523 42.1333 52.3523H28.2631C28.2311 52.3523 28.1948 52.3523 28.1732 52.2877ZM57.8438 38.9214C58.7175 41.3323 59.2243 43.2584 59.2576 44.3278C59.3353 46.8369 58.4509 48.1804 58.1309 48.1902C58.1297 48.1902 58.1285 48.1902 58.1273 48.1902C57.8036 48.1902 56.845 46.9042 56.7675 44.4048C56.7343 43.3357 57.1209 41.3819 57.8438 38.9214ZM49.5287 50.9453C49.1074 49.9619 48.7538 48.0017 48.5281 45.4473C50.222 47.3725 51.3973 48.9806 51.8187 49.964C52.8072 52.2715 52.4746 53.845 52.1803 53.9712C51.8871 54.0977 50.5171 53.2521 49.5287 50.9453ZM51.7753 59.835C50.7079 59.4629 49.7461 58.9093 49.1364 58.3161C48.6428 57.8362 48.5428 57.4856 48.5728 57.3993C48.6029 57.313 48.8993 57.1008 49.5843 57.0316C50.5657 56.9488 51.5261 57.1221 52.5955 57.4826C53.6056 57.8348 55.2912 58.896 57.3292 60.4524C54.7657 60.4043 52.7854 60.1873 51.7753 59.835ZM65.3336 54.9483C62.7697 54.9002 60.7898 54.6832 59.7794 54.3309H59.7795C57.4092 53.5044 56.4718 52.1975 56.5772 51.8952C56.6825 51.5929 58.2293 51.152 60.5997 51.9786C61.6102 52.3309 63.2956 53.392 65.3336 54.9483ZM66.703 38.1177C65.6643 40.576 64.2046 41.5235 63.8344 41.3668C63.466 41.2112 63.1257 39.504 64.1643 37.0451C64.6172 35.9735 65.9011 34.207 67.7517 32.0949C67.5273 34.8941 67.1557 37.0462 66.703 38.1177Z" fill="white" fill-opacity="0.52"/>
<path d="M35.0861 27.88C39.9214 27.88 43.8554 23.9461 43.8554 19.1108C43.8554 14.2754 39.9214 10.3415 35.0861 10.3415C30.2507 10.3415 26.3168 14.2754 26.3168 19.1108C26.3168 23.9461 30.2507 27.88 35.0861 27.88ZM35.0861 12.3553C38.811 12.3553 41.8415 15.3858 41.8415 19.1108C41.8415 22.8357 38.811 25.8662 35.0861 25.8662C31.3611 25.8662 28.3306 22.8357 28.3306 19.1108C28.3306 15.3858 31.3611 12.3553 35.0861 12.3553Z" fill="white" fill-opacity="0.52"/>
<path d="M31.8747 20.5308L31.6087 22.0816C31.5105 22.6537 31.7413 23.221 32.2109 23.5623C32.6804 23.9036 33.2912 23.9477 33.8054 23.6777L35.1981 22.9455L36.5907 23.6776C37.1024 23.9469 37.7142 23.9045 38.1852 23.5623C38.6549 23.221 38.8856 22.6537 38.7875 22.0817L38.5215 20.5308L39.6483 19.4325C40.0639 19.0274 40.2106 18.4326 40.0314 17.8807C39.8521 17.3286 39.3837 16.9337 38.8092 16.8502L37.2521 16.6239L36.5558 15.2129C36.2989 14.6924 35.7789 14.3691 35.1985 14.3689C35.1983 14.3689 35.1983 14.3689 35.1982 14.3689C34.6178 14.3689 34.0975 14.6923 33.8405 15.2129L33.1442 16.6239L31.5871 16.8502C31.0127 16.9337 30.5444 17.3286 30.365 17.8805C30.1857 18.4326 30.3324 19.0273 30.7481 19.4325L31.8747 20.5308ZM33.6936 18.5791C34.187 18.5074 34.6133 18.1977 34.8336 17.7509L35.1979 17.0126L35.5624 17.7513C35.783 18.1981 36.2091 18.5075 36.7021 18.5791L37.5169 18.6975L36.9275 19.2719C36.5705 19.6196 36.4076 20.1207 36.4918 20.6121L36.631 21.4236L35.9026 21.0408C35.6819 20.9247 35.44 20.8667 35.1978 20.8667C34.9559 20.8667 34.7138 20.9246 34.4932 21.0406L33.7646 21.4238L33.9038 20.6122C33.9878 20.1213 33.8253 19.6203 33.4684 19.2723L32.8787 18.6976L33.6936 18.5791Z" fill="white" fill-opacity="0.52"/>
</svg>
