<svg width="59" height="59" viewBox="0 0 59 59" fill="none" xmlns="http://www.w3.org/2000/svg">
<path d="M59 23.2223V14.8485L54.6331 13.7568C54.4705 13.3038 54.2847 12.8509 54.064 12.4096L56.3868 8.54203L50.4636 2.6188L46.5961 4.94164C46.1431 4.73258 45.6902 4.53514 45.2488 4.37254L44.1571 0.00561523H35.7833L34.6916 4.37254C34.2386 4.53514 33.7857 4.72097 33.3443 4.94164L29.4768 2.6188L23.5536 8.54203L25.8764 12.4096C25.6673 12.8625 25.4699 13.3155 25.3073 13.7568L20.9404 14.8485V19.2155H20.8939V21.1202H20.9404V23.2223L25.3073 24.3141C25.4699 24.767 25.6557 25.22 25.8764 25.6613L23.5536 29.5288L29.4768 35.4521L33.3443 33.1292C33.7973 33.3383 34.2502 33.5357 34.6916 33.6983L35.7833 38.0653H37.8855V38.1117H39.7902V38.0653H44.1571L45.2488 33.6983C45.7018 33.5357 46.1547 33.3499 46.5961 33.1292L50.4636 35.4521L56.3868 29.5288L54.064 25.6613C54.273 25.2084 54.4705 24.7554 54.6331 24.3141L59 23.2223ZM53.9943 29.2385L50.1732 33.0596L46.6774 30.969L46.2012 31.2129C45.516 31.5613 44.8307 31.8517 44.1455 32.0723L43.6461 32.2349L42.6589 36.1722H39.7786V36.1257H37.8738V36.1722H37.2583L36.2711 32.2349L35.7717 32.0723C35.0981 31.8517 34.4012 31.5613 33.716 31.2129L33.2398 30.969L29.7439 33.0596L25.9229 29.2385L28.0134 25.7426L27.7695 25.2664C27.4211 24.5928 27.1307 23.896 26.9101 23.2223L26.7475 22.7229L22.8103 21.7357V21.1202H22.8567V19.2155H22.8103V16.3351L26.7475 15.3479L26.9101 14.8485C27.1307 14.1749 27.4211 13.4781 27.7695 12.8044L28.0134 12.3283L25.9229 8.83239L29.7439 5.01132L33.2398 7.10188L33.716 6.85798C34.4012 6.50955 35.0864 6.2192 35.7601 5.99853L36.2595 5.83593L37.2467 1.89873H42.6473L43.6345 5.83593L44.1339 5.99853C44.8075 6.2192 45.5044 6.50955 46.1896 6.85798L46.6658 7.10188L50.1616 5.01132L53.9943 8.83239L51.9038 12.3283L52.1477 12.8044C52.4961 13.4897 52.7864 14.1749 53.0071 14.8485L53.1697 15.3479L57.1069 16.3351V21.7357L53.1697 22.7229L53.0071 23.2223C52.7864 23.9076 52.4961 24.5928 52.1477 25.2664L51.9038 25.7426L53.9943 29.2385Z" fill="white" stroke="white" stroke-width="0.3"/>
<path d="M22.8916 53.1172H20.8939V55.0219H22.8916V53.1172Z" fill="white" stroke="white" stroke-width="0.3"/>
<path d="M11.2838 49.1398L9.87131 47.7273L8.52448 49.0741L9.93701 50.4866L11.2838 49.1398Z" fill="white" stroke="white" stroke-width="0.3"/>
<path d="M5.88837 36.1257H3.98364V38.1234H5.88837V36.1257Z" fill="white" stroke="white" stroke-width="0.3"/>
<path d="M35.2501 49.0629L33.9033 47.7161L32.4907 49.1286L33.8376 50.4754L35.2501 49.0629Z" fill="white" stroke="white" stroke-width="0.3"/>
<path d="M9.93478 23.7598L8.52225 25.1724L9.86908 26.5192L11.2816 25.1067L9.93478 23.7598Z" fill="white" stroke="white" stroke-width="0.3"/>
<path d="M43.0537 42.0257L42.5892 40.1791L37.2699 41.5031L37.1073 42.0025C36.8518 42.7923 36.515 43.6052 36.1085 44.395L35.8646 44.8712L38.3035 48.9478L33.7276 53.547L29.651 51.108L29.1748 51.3519C28.385 51.7584 27.572 52.0952 26.7823 52.3507L26.2829 52.5133L25.1331 57.1125H18.6407L17.4909 52.5133L16.9915 52.3507C16.1902 52.0952 15.3888 51.7584 14.599 51.3519L14.1228 51.108L10.0463 53.547L5.45866 48.9594L7.89764 44.8828L7.65374 44.4066C7.24724 43.6052 6.91043 42.8039 6.65492 42.0141L6.49232 41.5147L1.89311 40.3649V33.8726L6.49232 32.7228L6.65492 32.2234C6.91043 31.4336 7.24724 30.6206 7.65374 29.8308L7.89764 29.3663L5.45866 25.2897L10.0463 20.7021L14.1228 23.1411L14.599 22.8972C15.3888 22.4907 16.2018 22.1539 16.9915 21.8984L17.4909 21.7358L18.815 16.4165L16.9683 15.9519L15.8882 20.2491C15.3191 20.4466 14.75 20.6905 14.1925 20.9576L9.74429 18.2864L3.05453 24.9761L5.72579 29.4243C5.45866 29.9934 5.21476 30.5625 5.01732 31.12L0 32.386V41.8515L5.01732 43.1058C5.21476 43.6749 5.45866 44.244 5.72579 44.8015L3.05453 49.2497L9.75591 55.9395L14.2041 53.2682C14.7732 53.5354 15.3307 53.7793 15.8998 53.9767L17.1541 58.994H26.6197L27.874 53.9767C28.4431 53.7793 29.0122 53.5354 29.5697 53.2682L34.0179 55.9395L40.7077 49.2497L38.0364 44.8015C38.3035 44.2324 38.5474 43.6633 38.7449 43.1058L43.0537 42.0257Z" fill="white" stroke="white" stroke-width="0.3"/>
<path d="M21.1146 27.148L20.9752 25.2549C14.8081 25.7194 9.96497 30.9342 9.96497 37.1246C9.96497 43.6982 15.3075 49.0407 21.8811 49.0407C28.0715 49.0407 33.2862 44.2092 33.7508 38.0421L31.8577 37.9027C31.4628 43.0826 27.0843 47.1476 21.8811 47.1476C16.3644 47.1476 11.8697 42.6529 11.8697 37.1362C11.8697 31.9214 15.9347 27.5429 21.1146 27.148Z" fill="white" stroke="white" stroke-width="0.3"/>
<path d="M39.9644 8.56519C34.1921 8.56519 29.5 13.2573 29.5 19.0296C29.5 24.8018 34.1921 29.4939 39.9644 29.4939C45.7366 29.4939 50.4287 24.8018 50.4287 19.0296C50.4404 13.2689 45.7366 8.56519 39.9644 8.56519ZM39.9644 27.6008C35.2374 27.6008 31.4047 23.7565 31.4047 19.0412C31.4047 14.3258 35.249 10.4815 39.9644 10.4815C44.6797 10.4815 48.524 14.3258 48.524 19.0412C48.524 23.7565 44.6913 27.6008 39.9644 27.6008Z" fill="white" stroke="white" stroke-width="0.3"/>
</svg>
