<svg width="62" height="59" viewBox="0 0 62 59" fill="none" xmlns="http://www.w3.org/2000/svg">
<path d="M59.8907 56.2323H57.428V43.5175V38.3036C57.428 36.3412 55.8316 34.7448 53.8691 34.7448H51.8388V27.5516V23.0174C51.8388 21.0551 50.2424 19.4585 48.28 19.4585H44.6303V16.0066C45.4458 15.8007 46.2179 15.3802 46.8547 14.7434C48.3184 13.2799 48.6862 11.0496 47.77 9.19334L44.5074 2.5836C44.3071 2.17783 43.8938 1.9209 43.4413 1.9209C42.9888 1.9209 42.5756 2.17783 42.3752 2.5836L39.1126 9.19346C38.1965 11.0495 38.5643 13.2799 40.028 14.7435C40.6648 15.3803 41.4368 15.8008 42.2524 16.0067V19.4586H31.8325V14.3477C32.6481 14.1418 33.4202 13.7213 34.0569 13.0845C35.5206 11.621 35.8883 9.3907 34.9723 7.53445L31.7097 0.924599C31.5093 0.518825 31.0961 0.261902 30.6436 0.261902C30.1911 0.261902 29.7778 0.518825 29.5775 0.924599L26.3149 7.53457C25.3988 9.3907 25.7667 11.621 27.2302 13.0845C27.867 13.7213 28.6391 14.1418 29.4547 14.3477V19.4586H19.0347V16.0104C19.8693 15.8 20.6348 15.3679 21.2592 14.7435C22.7228 13.28 23.0907 11.0496 22.1745 9.19346L18.9119 2.5836C18.7116 2.17783 18.2983 1.9209 17.8458 1.9209C17.3933 1.9209 16.98 2.17783 16.7797 2.5836L13.5171 9.19358C12.6011 11.0496 12.9689 13.28 14.4325 14.7436C15.0569 15.3681 15.8223 15.8001 16.6569 16.0105V19.4587H13.0072C11.0448 19.4587 9.44831 21.0552 9.44831 23.0176V27.5521V34.745H7.41801C5.4556 34.745 3.85913 36.3415 3.85913 38.3039V43.5177V56.2325H1.39643C0.739794 56.2325 0.20752 56.7648 0.20752 57.4214C0.20752 58.078 0.739794 58.6103 1.39643 58.6103H5.04804H56.2391H59.8907C60.5474 58.6103 61.0796 58.078 61.0796 57.4214C61.0796 56.7648 60.5474 56.2323 59.8907 56.2323ZM41.7093 13.0619C40.9666 12.3193 40.7801 11.1876 41.245 10.2458L43.4415 5.79579L45.638 10.2458C46.1028 11.1876 45.9162 12.3193 45.1736 13.0619C45.0087 13.2268 44.825 13.3613 44.6305 13.4692C43.8932 13.8785 42.9899 13.8785 42.2527 13.4692C42.0579 13.3614 41.8742 13.2269 41.7093 13.0619ZM28.9116 11.403C28.169 10.6604 27.9823 9.52873 28.4472 8.58688L30.6436 4.13703L32.8401 8.587C33.3049 9.52885 33.1183 10.6606 32.3757 11.4032C32.2108 11.5681 32.0271 11.7025 31.8326 11.8105C31.0955 12.2197 30.192 12.2197 29.4548 11.8105C29.2602 11.7024 29.0765 11.5681 28.9116 11.403ZM16.1138 13.0619C15.3711 12.3193 15.1846 11.1876 15.6494 10.2458L17.8459 5.79579L20.0424 10.2458C20.5073 11.1875 20.3206 12.3192 19.578 13.0619C19.4131 13.2268 19.2295 13.3613 19.035 13.4692C18.2978 13.8785 17.3944 13.8785 16.6571 13.4692C16.4624 13.3614 16.2787 13.2269 16.1138 13.0619ZM13.0072 21.8363H48.2801C48.9314 21.8363 49.4611 22.3661 49.4611 23.0174V26.7501C48.9373 26.9146 48.3729 26.9903 47.7069 26.9903C45.9338 26.9903 45.1246 26.4509 44.1002 25.768C42.96 25.0078 41.6676 24.1464 39.1746 24.1464C36.6817 24.1464 35.3893 25.0078 34.2492 25.768C33.2248 26.4509 32.4158 26.9903 30.6427 26.9903C28.8697 26.9903 28.0607 26.4509 27.0364 25.768C25.8963 25.008 24.604 24.1464 22.1111 24.1464C19.6184 24.1464 18.3261 25.008 17.186 25.768C16.1617 26.4509 15.3527 26.9903 13.5799 26.9903C12.9141 26.9903 12.35 26.9145 11.8262 26.7502V23.0174H11.8261C11.8261 22.3661 12.356 21.8363 13.0072 21.8363ZM55.0502 56.2323H6.23695V44.8058C7.24776 44.9917 7.89167 45.4202 8.65436 45.9287C9.79452 46.6889 11.0867 47.5504 13.5798 47.5504C16.0726 47.5504 17.3648 46.6888 18.5049 45.9287C19.5292 45.2458 20.3382 44.7064 22.111 44.7064C23.8839 44.7064 24.6931 45.2458 25.7173 45.9287C26.8575 46.6889 28.1497 47.5504 30.6426 47.5504C33.1356 47.5504 34.4279 46.6888 35.568 45.9287C36.5924 45.2458 37.4015 44.7064 39.1745 44.7064C40.9476 44.7064 41.7568 45.2458 42.7811 45.9287C43.9214 46.6888 45.2136 47.5504 47.7068 47.5504C50.1998 47.5504 51.4922 46.6888 52.6324 45.9287C53.3952 45.4202 54.0393 44.9916 55.0502 44.8057V56.2323ZM55.0502 42.4005C53.3045 42.6228 52.2569 43.3212 51.3135 43.9501C50.2891 44.633 49.4799 45.1724 47.7068 45.1724C45.9337 45.1724 45.1246 44.633 44.1001 43.9501C42.9598 43.1901 41.6675 42.3284 39.1745 42.3284C36.6816 42.3284 35.3892 43.1901 34.2491 43.9501C33.2247 44.633 32.4156 45.1724 30.6426 45.1724C28.8696 45.1724 28.0606 44.633 27.0363 43.9501C25.8961 43.1899 24.6039 42.3284 22.1109 42.3284C19.6181 42.3284 18.3259 43.1901 17.1857 43.9501C16.1615 44.633 15.3524 45.1724 13.5796 45.1724C11.8066 45.1724 10.9976 44.633 9.97333 43.9501C9.02993 43.3212 7.98251 42.6228 6.23695 42.4005V38.3035C6.23695 37.6522 6.76685 37.1225 7.41801 37.1225H16.5423C17.1989 37.1225 17.7312 36.5902 17.7312 35.9335C17.7312 35.2769 17.1989 34.7446 16.5423 34.7446H11.8261V29.2006C12.3733 29.3125 12.9513 29.3683 13.5798 29.3683C16.0726 29.3683 17.3648 28.5067 18.5049 27.7466C19.5292 27.0637 20.3382 26.5243 22.111 26.5243C23.884 26.5243 24.6931 27.0637 25.7173 27.7466C26.8575 28.5067 28.1497 29.3683 30.6426 29.3683C33.1355 29.3683 34.4279 28.5067 35.568 27.7466C36.5924 27.0637 37.4015 26.5243 39.1745 26.5243C40.9476 26.5243 41.7568 27.0637 42.7811 27.7466C43.9214 28.5068 45.2138 29.3683 47.7068 29.3683C48.3355 29.3683 48.9138 29.3124 49.461 29.2005V34.7448H26.0222C25.3655 34.7448 24.8333 35.277 24.8333 35.9337C24.8333 36.5903 25.3655 37.1226 26.0222 37.1226H53.8691C54.5204 37.1226 55.0502 37.6525 55.0502 38.3036V42.4005Z" fill="white"/>
</svg>
