<svg width="59" height="54" viewBox="0 0 59 54" fill="none" xmlns="http://www.w3.org/2000/svg">
<path d="M11.7297 39.3816C11.6837 39.3816 11.64 39.3792 11.5915 39.3744C5.45093 38.6932 0.818207 33.515 0.818207 27.3332C0.818207 20.9283 5.80972 15.6701 12.1055 15.241C13.7831 6.86287 21.2618 0.666504 29.9091 0.666504C36.6994 0.666504 42.9539 4.49196 46.0376 10.4701C53.3636 11.2386 59 17.4471 59 24.9089C59 31.4059 54.6461 37.1513 48.4158 38.8774C47.7661 39.0592 47.1018 38.6786 46.9249 38.0313C46.7455 37.3865 47.1236 36.7174 47.7685 36.5404C52.9539 35.1053 56.5758 30.3198 56.5758 24.9089C56.5758 18.492 51.5746 13.1877 45.1891 12.8338C44.7406 12.8095 44.3455 12.5404 44.1564 12.1356C41.5915 6.64226 36.0012 3.09075 29.9091 3.09075C22.1152 3.09075 15.4194 8.8968 14.3334 16.5938C14.2485 17.1901 13.737 17.6362 13.1334 17.6362C7.59154 17.6362 3.24245 21.9853 3.24245 27.3332C3.24245 32.2786 6.94669 36.4192 11.8631 36.9647C12.5273 37.0398 13.0073 37.6386 12.9321 38.3029C12.8643 38.9235 12.3382 39.3816 11.7297 39.3816Z" fill="white"/>
<path d="M23.8485 41.8787C23.5382 41.8787 23.2279 41.7599 22.9903 41.5247L18.1418 36.6762C17.6691 36.2035 17.6691 35.435 18.1418 34.9623L22.9903 30.1138C23.463 29.6411 24.2315 29.6411 24.7043 30.1138C25.177 30.5865 25.177 31.355 24.7043 31.8278L20.714 35.8181L24.7043 39.8084C25.177 40.2811 25.177 41.0496 24.7043 41.5223C24.4691 41.7599 24.1588 41.8787 23.8485 41.8787Z" fill="white"/>
<path d="M40.8182 37.0302H19.6037C18.9346 37.0302 18.3915 36.4872 18.3915 35.8181C18.3915 35.149 18.9346 34.606 19.6037 34.606H40.8182C41.4873 34.606 42.0303 35.149 42.0303 35.8181C42.0303 36.4872 41.4873 37.0302 40.8182 37.0302Z" fill="white"/>
<path d="M35.9697 53.9998C35.6594 53.9998 35.3491 53.881 35.1115 53.6458C34.6388 53.1731 34.6388 52.4046 35.1115 51.9319L39.1018 47.9416L35.1115 43.9513C34.6388 43.4786 34.6388 42.7101 35.1115 42.2374C35.5843 41.7646 36.3527 41.7646 36.8255 42.2374L41.674 47.0858C42.1467 47.5586 42.1467 48.327 41.674 48.7998L36.8255 53.6483C36.5903 53.881 36.28 53.9998 35.9697 53.9998Z" fill="white"/>
<path d="M40.2146 49.1513H19C18.3309 49.1513 17.7879 48.6083 17.7879 47.9392C17.7879 47.2701 18.3309 46.7271 19 46.7271H40.2146C40.8836 46.7271 41.4267 47.2701 41.4267 47.9392C41.4267 48.6083 40.8836 49.1513 40.2146 49.1513Z" fill="white"/>
</svg>
