<svg width="29" height="29" viewBox="0 0 29 29" fill="none" xmlns="http://www.w3.org/2000/svg">
<path d="M16.3814 0.32299L16.3814 3.60396C16.3814 3.79028 16.3009 3.96851 16.1599 4.09407L5.9982 12.9608L28.6778 12.9608C28.855 12.9608 29 13.1066 29 13.2848L29 15.7152C29 15.8934 28.855 16.0392 28.6778 16.0392L5.9982 16.0392L16.1599 24.9059C16.3009 25.0274 16.3814 25.2057 16.3814 25.396L16.3814 28.677C16.3814 28.9525 16.0552 29.1023 15.8498 28.92L0.444096 15.4762C0.304696 15.3547 0.192896 15.2044 0.116274 15.0356C0.0396525 14.8669 -3.1889e-06 14.6835 -3.18079e-06 14.498C-3.17268e-06 14.3124 0.0396525 14.1291 0.116275 13.9603C0.192897 13.7915 0.304696 13.6413 0.444096 13.5198L15.8498 0.0799555C16.0592 -0.10232 16.3814 0.0475496 16.3814 0.32299Z" fill="#011634" fill-opacity="0.12"/>
</svg>
