<svg width="35" height="30" viewBox="0 0 35 30" fill="none" xmlns="http://www.w3.org/2000/svg">
<path d="M33.8707 13.0558H29.9955C29.7755 13.0558 29.565 13.1346 29.4166 13.2724L18.9441 23.2051V1.03651C18.9441 0.863286 18.7719 0.721558 18.5613 0.721558H15.6908C15.4803 0.721558 15.3081 0.863286 15.3081 1.03651V23.2051L4.83555 13.2724C4.69203 13.1346 4.48152 13.0558 4.25667 13.0558H0.381484C0.0561601 13.0558 -0.120854 13.3747 0.0944334 13.5755L15.9731 28.6341C16.1166 28.7704 16.2941 28.8797 16.4934 28.9545C16.6928 29.0294 16.9094 29.0682 17.1285 29.0682C17.3476 29.0682 17.5642 29.0294 17.7635 28.9545C17.9629 28.8797 18.1403 28.7704 18.2839 28.6341L34.1578 13.5755C34.373 13.3708 34.196 13.0558 33.8707 13.0558Z" fill="white" fill-opacity="0.92"/>
</svg>
