<svg width="29" height="29" viewBox="0 0 29 29" fill="none" xmlns="http://www.w3.org/2000/svg">
<path d="M12.6186 0.32299L12.6186 3.60396C12.6186 3.79028 12.6991 3.96851 12.8401 4.09407L23.0018 12.9608L0.32221 12.9608C0.144994 12.9608 -6.94722e-07 13.1066 -6.86932e-07 13.2848L-5.80698e-07 15.7152C-5.72908e-07 15.8934 0.144994 16.0392 0.32221 16.0392L23.0018 16.0392L12.8401 24.9059C12.6991 25.0274 12.6186 25.2057 12.6186 25.396L12.6186 28.677C12.6186 28.9525 12.9448 29.1023 13.1502 28.92L28.5559 15.4762C28.6953 15.3547 28.8071 15.2044 28.8837 15.0356C28.9603 14.8669 29 14.6835 29 14.498C29 14.3124 28.9603 14.1291 28.8837 13.9603C28.8071 13.7915 28.6953 13.6413 28.5559 13.5198L13.1502 0.0799555C12.9408 -0.10232 12.6186 0.0475496 12.6186 0.32299Z" fill="#011634"/>
</svg>
