<svg width="10" height="17" viewBox="0 0 10 17" fill="none" xmlns="http://www.w3.org/2000/svg">
<path d="M9.28667 4.25C8.89149 4.25 8.57334 4.56543 8.57334 4.95723V12.0395C8.57334 13.9951 6.97589 15.5822 5 15.5822C3.02411 15.5822 1.42666 13.9951 1.42666 12.0395V3.53945C1.42666 2.36738 2.38446 1.41445 3.56999 1.41445C4.75553 1.41445 5.71333 2.36738 5.71333 3.53945V10.625C5.71333 11.0168 5.39183 11.3322 5 11.3322C4.60817 11.3322 4.28667 11.0168 4.28667 10.625V4.95723C4.28667 4.56543 3.96517 4.25 3.57334 4.25C3.17816 4.25 2.86001 4.56543 2.86001 4.95723V10.625C2.86001 11.8004 3.81782 12.75 5.00335 12.75C6.18888 12.75 7.14669 11.8004 7.14669 10.625V3.54277C7.14334 1.58711 5.54253 0 3.56999 0C1.59746 0 0 1.58711 0 3.54277V12.0428C0 14.782 2.24046 17 5 17C7.75955 17 10 14.7787 10 12.0428V4.95723C10 4.56543 9.68185 4.25 9.28667 4.25Z" fill="white" fill-opacity="0.71"/>
</svg>
