<svg width="24" height="28" viewBox="0 0 24 28" fill="none" xmlns="http://www.w3.org/2000/svg">
<path d="M2.66667 27.3587H21.3333C22.804 27.3587 24 26.1407 24 24.6428V9.70552C24 9.34538 23.8595 8.99998 23.6095 8.74532C23.3594 8.49065 23.0203 8.34758 22.6667 8.34758H18.6667V6.98965C18.6667 3.24581 15.676 0.199951 12 0.199951C8.324 0.199951 5.33333 3.24581 5.33333 6.98965V8.34758H1.33333C0.979711 8.34758 0.640573 8.49065 0.390524 8.74532C0.140476 8.99998 0 9.34538 0 9.70552V24.6428C0 26.1407 1.196 27.3587 2.66667 27.3587ZM8 6.98965C8 4.74361 9.79467 2.91583 12 2.91583C14.2053 2.91583 16 4.74361 16 6.98965V8.34758H8V6.98965ZM2.66667 11.0635H5.33333V13.7793H8V11.0635H16V13.7793H18.6667V11.0635H21.3333L21.336 24.6428H2.66667V11.0635Z" fill="white"/>
</svg>
