<svg width="19" height="15" viewBox="0 0 19 15" fill="none" xmlns="http://www.w3.org/2000/svg">
<path d="M12.0725 11.7493H10.5448V6.7538C10.5448 6.66309 10.4706 6.58887 10.3799 6.58887H9.14285C9.05213 6.58887 8.97791 6.66309 8.97791 6.7538V11.7493H7.45433C7.3162 11.7493 7.23992 11.908 7.32444 12.0152L9.63353 14.9366C9.64895 14.9563 9.66867 14.9723 9.69117 14.9832C9.71367 14.9942 9.73838 14.9999 9.76341 14.9999C9.78844 14.9999 9.81315 14.9942 9.83565 14.9832C9.85816 14.9723 9.87787 14.9563 9.8933 14.9366L12.2024 12.0152C12.2869 11.908 12.2106 11.7493 12.0725 11.7493Z" fill="#011634" fill-opacity="0.6"/>
<path d="M15.9363 4.74782C14.9921 2.25731 12.5861 0.486328 9.7678 0.486328C6.94948 0.486328 4.5435 2.25525 3.59925 4.74576C1.83239 5.20964 0.527344 6.81981 0.527344 8.73305C0.527344 11.0112 2.37255 12.8564 4.64864 12.8564H5.47538C5.56609 12.8564 5.64031 12.7822 5.64031 12.6915V11.4545C5.64031 11.3638 5.56609 11.2895 5.47538 11.2895H4.64864C3.95386 11.2895 3.3003 11.0133 2.81375 10.5123C2.32925 10.0134 2.07154 9.34125 2.09422 8.6444C2.11278 8.10011 2.29833 7.58882 2.63438 7.15793C2.97868 6.71879 3.46111 6.39923 3.99715 6.25697L4.77853 6.05287L5.0651 5.29829C5.24241 4.82823 5.48981 4.38909 5.80112 3.99118C6.10846 3.5968 6.47252 3.25011 6.88144 2.96241C7.72879 2.36658 8.72665 2.05114 9.7678 2.05114C10.8089 2.05114 11.8068 2.36658 12.6541 2.96241C13.0644 3.25104 13.4273 3.5974 13.7345 3.99118C14.0458 4.38909 14.2932 4.83029 14.4705 5.29829L14.755 6.0508L15.5343 6.25697C16.6517 6.55798 17.4331 7.57439 17.4331 8.73305C17.4331 9.41547 17.1672 10.0587 16.6847 10.5411C16.4481 10.7791 16.1667 10.9678 15.8567 11.0963C15.5467 11.2247 15.2143 11.2904 14.8787 11.2895H14.052C13.9613 11.2895 13.887 11.3638 13.887 11.4545V12.6915C13.887 12.7822 13.9613 12.8564 14.052 12.8564H14.8787C17.1548 12.8564 19 11.0112 19 8.73305C19 6.82187 17.6991 5.21376 15.9363 4.74782Z" fill="#011634" fill-opacity="0.6"/>
</svg>
