<svg width="77" height="77" viewBox="0 0 77 77" fill="none" xmlns="http://www.w3.org/2000/svg">
<path d="M38.4962 0.463379C17.5933 0.463379 0.644531 17.4121 0.644531 38.315C0.644531 59.2179 17.5933 76.1667 38.4962 76.1667C59.3991 76.1667 76.3478 59.2179 76.3478 38.315C76.3478 17.4121 59.3991 0.463379 38.4962 0.463379ZM50.6712 38.898L32.2186 52.3235C32.1174 52.3962 31.9981 52.4396 31.8739 52.4489C31.7497 52.4583 31.6253 52.4332 31.5144 52.3764C31.4035 52.3197 31.3104 52.2335 31.2453 52.1272C31.1803 52.021 31.1457 51.8989 31.1455 51.7743V24.9402C31.1451 24.8154 31.1793 24.6929 31.2442 24.5863C31.3092 24.4797 31.4024 24.3932 31.5135 24.3363C31.6246 24.2794 31.7493 24.2544 31.8737 24.2641C31.9982 24.2738 32.1175 24.3177 32.2186 24.391L50.6712 37.8081C50.7584 37.8697 50.8295 37.9514 50.8786 38.0462C50.9277 38.1411 50.9533 38.2463 50.9533 38.353C50.9533 38.4598 50.9277 38.565 50.8786 38.6599C50.8295 38.7547 50.7584 38.8364 50.6712 38.898Z" fill="white" fill-opacity="0.59"/>
</svg>
