<svg width="27" height="28" viewBox="0 0 27 28" fill="none" xmlns="http://www.w3.org/2000/svg">
<path d="M11.5465 23.4275C14.1083 23.4269 16.5963 22.5643 18.6144 20.977L24.9592 27.3587L27 25.306L20.6552 18.9242C22.2342 16.8942 23.0923 14.3911 23.093 11.8137C23.093 5.41017 17.9129 0.199951 11.5465 0.199951C5.18004 0.199951 0 5.41017 0 11.8137C0 18.2172 5.18004 23.4275 11.5465 23.4275ZM11.5465 3.10339C16.3224 3.10339 20.2063 7.00997 20.2063 11.8137C20.2063 16.6175 16.3224 20.524 11.5465 20.524C6.77057 20.524 2.88662 16.6175 2.88662 11.8137C2.88662 7.00997 6.77057 3.10339 11.5465 3.10339Z" fill="white"/>
</svg>
