<svg width="15" height="16" viewBox="0 0 15 16" fill="none" xmlns="http://www.w3.org/2000/svg">
<path d="M8.51377 1.96634C8.57231 1.97051 8.62657 1.97468 8.67226 1.98094C11.8872 2.46277 13.3658 3.9458 13.7749 7.10099C13.782 7.15453 13.7834 7.21988 13.7842 7.28872C13.7884 7.53554 13.797 8.04866 14.3625 8.05909H14.3796C14.5574 8.05909 14.698 8.00694 14.7994 7.90404C14.975 7.72535 14.9636 7.45906 14.9529 7.24491C14.9508 7.19207 14.9486 7.14271 14.9486 7.09891C14.99 3.8728 12.1214 0.94636 8.81148 0.837896C8.7972 0.837896 8.78435 0.837896 8.7715 0.839982C8.75848 0.841582 8.74536 0.842279 8.73223 0.842068C8.69868 0.842068 8.6587 0.839287 8.61515 0.836506C8.56374 0.833029 8.50448 0.828857 8.4438 0.828857C7.9169 0.828857 7.81695 1.19388 7.8041 1.4115C7.77483 1.91419 8.27388 1.94965 8.51377 1.96634ZM13.6199 11.1788C13.551 11.1277 13.4827 11.0758 13.415 11.0231C13.0638 10.7477 12.6904 10.4947 12.3298 10.2492L12.1049 10.0963C11.6423 9.77991 11.2268 9.62625 10.8341 9.62625C10.3044 9.62625 9.84314 9.91132 9.46189 10.4724C9.2934 10.7213 9.0885 10.8423 8.83647 10.8423C8.66143 10.8363 8.48965 10.7944 8.33242 10.7192C6.84026 10.0601 5.77362 9.04917 5.1639 7.71493C4.86904 7.0697 4.96471 6.64836 5.48304 6.30489C5.7779 6.11022 6.3255 5.74797 6.28766 5.05339C6.2434 4.26563 4.45781 1.89403 3.7053 1.62495C3.38361 1.51068 3.03098 1.5097 2.70862 1.62217C1.84403 1.90515 1.22432 2.40297 0.913749 3.06002C0.613889 3.6955 0.628168 4.44154 0.952302 5.21747C1.89115 7.46115 3.21053 9.41767 4.87475 11.0321C6.50328 12.6125 8.5052 13.9064 10.8241 14.8791C11.0333 14.9667 11.2525 15.0147 11.4131 15.0494C11.4674 15.0613 11.5145 15.0717 11.5488 15.0807C11.5676 15.0857 11.5871 15.0883 11.6066 15.0884H11.6252C12.7161 15.0884 14.0262 14.1178 14.4281 13.0116C14.7808 12.0424 14.1368 11.5633 13.6199 11.1788ZM8.9964 4.52984C8.81006 4.53401 8.42095 4.54375 8.28459 4.92893C8.22033 5.1097 8.22818 5.26545 8.30743 5.39408C8.42309 5.5818 8.64513 5.6402 8.84647 5.67219C9.57827 5.78621 9.95452 6.17974 10.0295 6.91187C10.0645 7.25256 10.3008 7.49104 10.6028 7.49104C10.6257 7.49101 10.6486 7.48962 10.6713 7.48687C11.0354 7.44516 11.2118 7.18442 11.1961 6.71233C11.2018 6.22007 10.9376 5.66106 10.4871 5.21608C10.0359 4.76971 9.49188 4.51802 8.9964 4.52984Z" fill="#011634"/>
</svg>
