<svg width="20" height="12" viewBox="0 0 20 12" fill="none" xmlns="http://www.w3.org/2000/svg">
<path fill-rule="evenodd" clip-rule="evenodd" d="M17.8021 8.29796C17.8021 8.29796 19.4191 9.89496 19.8191 10.634C19.8269 10.6446 19.8329 10.6564 19.8371 10.669C20.0001 10.942 20.0401 11.156 19.9601 11.314C19.8251 11.575 19.3681 11.706 19.2131 11.717H16.3551C16.1561 11.717 15.7421 11.665 15.2381 11.317C14.8531 11.048 14.4701 10.605 14.0991 10.172C13.5451 9.52896 13.0661 8.97096 12.5811 8.97096C12.5198 8.97083 12.459 8.98097 12.4011 9.00096C12.0341 9.11696 11.5681 9.63996 11.5681 11.033C11.5681 11.469 11.2241 11.717 10.9831 11.717H9.67409C9.22809 11.717 6.90609 11.561 4.84709 9.38996C2.32409 6.73196 0.05809 1.39996 0.03609 1.35296C-0.10491 1.00796 0.19109 0.819959 0.51109 0.819959H3.39709C3.78409 0.819959 3.91009 1.05396 3.99809 1.26396C4.10009 1.50496 4.47809 2.46896 5.09809 3.55196C6.10209 5.31396 6.71909 6.03096 7.21209 6.03096C7.30471 6.03123 7.39577 6.00709 7.47609 5.96096C8.12009 5.60696 8.00009 3.30696 7.97009 2.83296C7.97009 2.74096 7.96909 1.80596 7.63909 1.35396C7.40309 1.02996 7.00109 0.903959 6.75809 0.857959C6.82309 0.763959 6.96109 0.619959 7.13809 0.534959C7.57909 0.314959 8.37609 0.282959 9.16709 0.282959H9.60609C10.4641 0.294959 10.6861 0.349959 10.9981 0.428959C11.6261 0.578959 11.6381 0.985959 11.5831 2.37196C11.5671 2.76796 11.5501 3.21396 11.5501 3.73896C11.5501 3.85096 11.5451 3.97596 11.5451 4.10296C11.5261 4.81396 11.5011 5.61496 12.0031 5.94396C12.0682 5.98452 12.1434 6.006 12.2201 6.00596C12.3941 6.00596 12.9151 6.00596 14.3281 3.58096C14.9481 2.50996 15.4281 1.24696 15.4611 1.15196C15.4891 1.09896 15.5731 0.949959 15.6751 0.889959C15.7476 0.851354 15.8289 0.832069 15.9111 0.833959H19.3061C19.6761 0.833959 19.9271 0.889959 19.9761 1.02996C20.0581 1.25696 19.9601 1.94996 18.4101 4.04596C18.1491 4.39496 17.9201 4.69696 17.7191 4.96096C16.3141 6.80496 16.3141 6.89796 17.8021 8.29796Z" fill="white"/>
</svg>
