<svg width="73" height="73" viewBox="0 0 73 73" fill="none" xmlns="http://www.w3.org/2000/svg">
<g clip-path="url(#clip0)">
<path d="M39.7186 41.4919V22.6616C39.7186 22.0629 39.2335 21.5778 38.6342 21.5778C38.0355 21.5778 37.5504 22.0629 37.5504 22.6616V42.0394C37.5504 42.3903 37.7197 42.7189 38.0054 42.9221C42.0539 45.8066 44.4705 50.4916 44.4705 55.4551C44.4705 63.9335 37.5727 70.8318 29.0937 70.8318C20.6153 70.8318 13.717 63.9335 13.717 55.4551C13.717 50.4916 16.1342 45.8066 20.1826 42.9221C20.4678 42.7189 20.6376 42.3903 20.6376 42.0394V10.6249C20.6376 5.9621 24.431 2.16819 29.0937 2.16819C33.7565 2.16819 37.5504 5.9621 37.5504 10.6249V18.3246C37.5504 18.9233 38.0355 19.409 38.6342 19.409C39.2335 19.409 39.7186 18.9233 39.7186 18.3246V10.6249C39.7186 4.76634 34.9522 0 29.0937 0C23.2352 0 18.4689 4.76634 18.4689 10.6249V41.4919C14.1258 44.8029 11.5488 49.9809 11.5488 55.4551C11.5488 65.1292 19.4196 73 29.0937 73C38.7684 73 46.6392 65.1292 46.6392 55.4551C46.6392 49.9803 44.0622 44.8029 39.7186 41.4919Z" fill="white" fill-opacity="0.87"/>
<path d="M29.0938 65.0496C27.1166 65.0496 25.2169 64.4503 23.5995 63.3164C23.1094 62.9722 22.4327 63.0908 22.089 63.5815C21.7454 64.0716 21.864 64.7477 22.3547 65.0914C24.3385 66.4826 26.6688 67.2178 29.0938 67.2178C35.5799 67.2178 40.857 61.9413 40.857 55.4551C40.857 51.6579 39.0068 48.0733 35.9085 45.8656L33.9364 44.461V10.6249C33.9364 7.95432 31.7643 5.78223 29.0938 5.78223C26.4238 5.78223 24.2511 7.95432 24.2511 10.6249V44.461L22.2795 45.8656C19.1807 48.0733 17.3311 51.6579 17.3311 55.4551C17.3311 57.8088 18.0267 60.0817 19.3433 62.0287C19.6786 62.5244 20.3525 62.6547 20.8487 62.3195C21.345 61.9842 21.4747 61.3103 21.1395 60.814C20.0668 59.2273 19.4992 57.3738 19.4992 55.4551C19.4992 52.3574 21.0091 49.4329 23.5377 47.6317L25.9643 45.9024C26.25 45.6991 26.4199 45.3699 26.4199 45.0196V40.8336H31.7682V45.0196C31.7682 45.3699 31.9375 45.6991 32.2232 45.9024L34.6504 47.6317C37.1789 49.4329 38.6883 52.3574 38.6883 55.4551C38.6883 60.7455 34.3842 65.0496 29.0938 65.0496ZM31.7682 22.098H26.4199V15.9827H31.7682V22.098ZM26.4199 24.2661H31.7682V30.3814H26.4199V24.2661ZM29.0938 7.95042C30.5685 7.95042 31.7682 9.15008 31.7682 10.6249V13.8145H26.4199V10.6249C26.4199 9.15008 27.6195 7.95042 29.0938 7.95042ZM26.4199 38.6654V32.5502H31.7682V38.6654H26.4199Z" fill="white" fill-opacity="0.87"/>
<path d="M60.2481 24.2466C59.4917 24.2466 59.0785 24.5368 59.0217 25.1065C58.8585 26.3847 58.6123 28.3151 55.602 28.3151C53.1348 28.3151 51.9351 27.062 51.9351 24.4839V16.2088C51.9351 13.6663 53.1414 12.377 55.5196 12.377C58.2859 12.377 58.9509 14.059 59.0217 15.4703C59.0523 16.0283 59.4884 16.3357 60.2481 16.3357C61.025 16.3357 61.475 16.1174 61.475 14.9991C61.475 12.1397 59.0033 10.1431 55.4645 10.1431C51.6622 10.1431 49.4812 12.3541 49.4812 16.2088V24.4839C49.4812 26.5557 50.0732 28.1335 51.2411 29.1733C52.2514 30.0734 53.7023 30.549 55.4372 30.549C58.9922 30.549 61.475 28.5184 61.475 25.6106C61.475 24.475 61.0055 24.2466 60.2481 24.2466Z" fill="white" fill-opacity="0.87"/>
<path d="M51.0146 7.0498C51.0146 5.09715 49.4257 3.50818 47.473 3.50818C45.5198 3.50818 43.9314 5.09715 43.9314 7.0498C43.9314 9.00245 45.5198 10.5914 47.473 10.5914C49.4257 10.5914 51.0146 9.00245 51.0146 7.0498ZM47.473 8.42323C46.7156 8.42323 46.0996 7.80669 46.0996 7.0498C46.0996 6.29235 46.7156 5.67637 47.473 5.67637C48.2299 5.67637 48.8459 6.29235 48.8459 7.0498C48.8459 7.80669 48.2299 8.42323 47.473 8.42323Z" fill="white" fill-opacity="0.87"/>
</g>
<defs>
<clipPath id="clip0">
<rect width="73" height="73" fill="white"/>
</clipPath>
</defs>
</svg>
