<svg width="78" height="78" viewBox="0 0 78 78" fill="none" xmlns="http://www.w3.org/2000/svg">
<g clip-path="url(#clip0)">
<path d="M76.9788 34.1949C76.3197 33.9164 75.5806 34.0768 75.0963 34.6041C73.021 36.8627 70.3559 40.0079 69.4443 42.1652C68.2568 44.976 68.1766 47.5628 69.1055 49.023C68.8209 49.54 68.5246 50.051 68.2152 50.5542C67.9576 48.3129 66.8206 45.062 65.8595 42.6152C65.6022 41.9608 64.9773 41.5508 64.2797 41.5738C63.5771 41.5956 62.9834 42.042 62.7674 42.7112C61.8754 45.4732 60.8267 49.2315 60.8955 51.4512C60.9766 54.0723 61.77 56.1775 62.9481 57.2235C62.896 57.2754 62.8445 57.3286 62.7922 57.3802C61.8061 57.6881 61.0974 58.2711 60.8061 59.1065C60.7921 59.1465 60.7813 59.1869 60.7694 59.2273C60.6745 59.3072 60.5788 59.3868 60.4828 59.466C60.338 58.618 60.0685 57.7089 59.6679 56.7739C58.7932 54.7322 56.2561 51.7681 54.2817 49.6409C53.8035 49.1255 53.0765 48.9713 52.4305 49.2483C51.7845 49.5251 51.3948 50.1576 51.4382 50.8595C51.6164 53.7563 52.0127 57.6379 52.8873 59.6793C53.5008 61.111 54.2818 62.2808 55.1247 63.1096C54.9191 63.2228 54.7128 63.334 54.5059 63.4423C53.7834 63.5505 53.2438 63.7613 52.8404 64.0147V62.8137C52.8404 61.4685 51.7458 60.374 50.4006 60.374H48.9987C49.0394 59.601 48.7027 58.8563 48.0545 58.3648L44.9989 56.0489C43.9761 55.2738 43.3653 54.0447 43.3653 52.7613V48.3534C46.9372 47.2981 50.0427 44.9821 52.0997 41.7227L52.2447 41.4928H54.8671C57.8712 41.4928 60.8436 40.4926 63.2366 38.6767L71.8289 32.1568C76.2222 28.8233 77.9384 23.0901 76.0991 17.8909C74.3414 12.9216 69.6189 9.5408 64.3476 9.47804C63.1575 9.46402 62.0008 9.46204 60.896 9.47164V4.44948C60.896 3.07869 59.7807 1.96353 58.4099 1.96353H30.7662C30.1369 1.96353 29.6267 2.47373 29.6267 3.10306C29.6267 3.73239 30.1367 4.24259 30.7662 4.24259H58.4097C58.524 4.24259 58.6169 4.33552 58.6169 4.44963V18.1872C58.6169 24.0343 56.9675 29.7385 53.847 34.6832L50.1722 40.5062C47.7164 44.3978 43.5111 46.7156 38.9131 46.7156C38.8918 46.7156 38.8703 46.7156 38.8486 46.7154C34.2256 46.6936 30.0145 44.3328 27.584 40.4L23.9994 34.5997C20.9796 29.7134 19.3835 24.0944 19.3835 18.3504V4.44948C19.3835 4.33537 19.4765 4.24244 19.5907 4.24244H25.4262C26.0556 4.24244 26.5658 3.73224 26.5658 3.10291C26.5658 2.47358 26.0557 1.96338 25.4262 1.96338H19.5907C18.2199 1.96338 17.1046 3.07854 17.1046 4.44932V9.47118C16.0007 9.46143 14.8441 9.46357 13.653 9.47773C8.38172 9.5405 3.65906 12.9213 1.90147 17.8906C0.0622283 23.0898 1.77838 28.8228 6.17167 32.1565L14.764 38.6764C17.157 40.4923 20.1294 41.4925 23.1335 41.4925H25.5803L25.6455 41.5979C27.643 44.83 30.6679 47.1537 34.1654 48.2623V52.7609C34.1654 54.0442 33.5547 55.2733 32.5319 56.0486L29.4761 58.3645C28.8279 58.8558 28.4911 59.6007 28.5319 60.3736H27.6C26.2548 60.3736 25.1603 61.4682 25.1603 62.8134V64.0144C24.7564 63.7607 24.2162 63.5497 23.4925 63.4417C23.2864 63.3338 23.0808 63.2223 22.8754 63.1094C23.7185 62.2807 24.4997 61.1107 25.113 59.679C25.9876 57.6376 26.3839 53.756 26.5621 50.8592C26.6054 50.1573 26.2158 49.5249 25.5698 49.248C24.9235 48.9712 24.197 49.1252 23.7186 49.6406C21.7444 51.7674 19.2074 54.7316 18.3324 56.7735C17.9317 57.7084 17.6622 58.6179 17.5173 59.466C17.4212 59.3866 17.3257 59.3065 17.2306 59.2262C17.2189 59.1861 17.2081 59.1459 17.1942 59.106C16.9029 58.2705 16.1942 57.6877 15.2081 57.3796C15.1558 57.3281 15.1045 57.2748 15.0524 57.2229C16.2302 56.1767 17.0236 54.0713 17.1048 51.4507C17.1736 49.2311 16.1249 45.4728 15.2329 42.7108C15.0169 42.0417 14.4232 41.5953 13.7206 41.5735C13.0232 41.5502 12.398 41.9605 12.1408 42.6151C11.1795 45.0622 10.0423 48.3138 9.78496 50.5551C9.4754 50.0518 9.17939 49.5402 8.89466 49.0228C9.8235 47.5626 9.74337 44.9758 8.5557 42.1649C7.64422 40.0076 4.97912 36.8624 2.9039 34.6038C2.4196 34.0767 1.68058 33.9158 1.02138 34.1946C0.362193 34.4732 -0.0377091 35.1151 0.0028143 35.8294C0.175877 38.892 0.573342 42.9953 1.48466 45.1524C2.80777 48.284 4.8897 50.2381 6.74052 50.2381C6.81273 50.2381 6.88449 50.2337 6.95594 50.2277C7.90108 51.9323 8.97601 53.5712 10.159 55.1067C10.2033 55.1641 10.253 55.2145 10.3052 55.2611C10.6296 56.1339 11.0784 56.8306 11.6213 57.2951C11.0168 57.4068 10.3863 57.5731 9.73971 57.7986C7.6424 58.53 4.5096 60.8557 2.25095 62.6777C1.70358 63.1192 1.49944 63.8334 1.73085 64.4973C2.03005 65.4356 2.99561 65.6866 3.88499 65.6015C6.70244 65.6015 10.2165 65.445 12.1684 64.7643H12.1685C14.268 64.0323 15.8594 62.9227 16.6883 61.7258C16.9876 61.9626 17.2899 62.1948 17.5938 62.4202C17.803 63.1341 18.1727 63.7004 18.6968 64.0637C16.6013 64.8323 13.5319 67.1124 11.3082 68.9061C10.761 69.3478 10.557 70.062 10.7884 70.7257C11.0877 71.664 12.0534 71.9149 12.9424 71.8297C15.7599 71.8297 19.2741 71.6733 21.2258 70.9926C22.7589 70.458 24.1173 69.6636 25.0509 68.7553C25.0883 68.7189 25.124 68.6826 25.1595 68.6465V73.5962C25.1595 74.9414 26.2541 76.036 27.5993 76.036H42.1495C42.7788 76.036 43.289 75.5258 43.289 74.8964C43.289 74.2671 42.779 73.7569 42.1495 73.7569H27.5993C27.5106 73.7569 27.4384 73.6847 27.4384 73.596V62.8128C27.4384 62.7242 27.5105 62.6519 27.5993 62.6519H50.3995C50.4882 62.6519 50.5604 62.7242 50.5604 62.8128V73.596C50.5604 73.6847 50.4883 73.7569 50.3995 73.7569H47.6474C47.0181 73.7569 46.5079 74.2671 46.5079 74.8964C46.5079 75.5258 47.0179 76.036 47.6474 76.036H50.3995C51.7447 76.036 52.8393 74.9414 52.8393 73.5962V68.6465C52.8748 68.6826 52.9104 68.7189 52.9479 68.7553C53.8815 69.6636 55.2399 70.458 56.773 70.9926H56.7728C58.7249 71.6733 62.2389 71.8297 65.0563 71.8297C65.9454 71.9151 66.9116 71.6637 67.2103 70.7257C67.4417 70.062 67.2377 69.3478 66.6904 68.9061C64.4669 67.1126 61.3975 64.8323 59.3022 64.0639C59.8264 63.7002 60.1963 63.1335 60.4054 62.419C60.7095 62.1934 61.0121 61.9627 61.311 61.7265C62.14 62.9231 63.7313 64.0325 65.8304 64.7645H65.8306C67.7827 65.4452 71.2966 65.6016 74.1139 65.6016C75.003 65.6869 75.9693 65.4354 76.2681 64.4974C76.4995 63.8337 76.2953 63.1195 75.748 62.678C73.4893 60.8558 70.3565 58.5301 68.2591 57.7987C67.6127 57.5734 66.9821 57.4069 66.3776 57.2952C66.9072 56.8422 67.3467 56.1679 67.669 55.3253C67.673 55.3203 67.6777 55.316 67.6817 55.311C68.9282 53.7155 70.056 52.0078 71.0428 50.2279C71.1144 50.2338 71.1863 50.2382 71.2587 50.2382C73.1095 50.2382 75.1913 48.2841 76.5146 45.1525C77.426 42.9955 77.8235 38.8921 77.9964 35.8297C78.0377 35.1152 77.638 34.4734 76.9788 34.1949ZM55.5207 36.3009C57.1774 36.1737 58.7875 35.5678 60.1138 34.5614L63.5647 31.9428C64.0661 31.5624 64.1642 30.8476 63.7837 30.3462C63.4034 29.845 62.6889 29.7469 62.1873 30.1273L58.7364 32.746C58.2294 33.1306 57.6657 33.435 57.0706 33.6532C59.579 28.8941 60.8955 23.5979 60.8955 18.1871V16.9171C61.9735 16.9069 63.0996 16.9081 64.2587 16.9219C66.4216 16.9476 68.3593 18.3347 69.0805 20.3735C69.8351 22.5065 69.1309 24.8585 67.3285 26.2263L66.0958 27.1618C65.5944 27.5422 65.4963 28.257 65.8767 28.7584C66.101 29.0538 66.441 29.2091 66.7853 29.2091C67.0252 29.2091 67.2673 29.1336 67.4731 28.9773L68.7059 28.0419C71.3017 26.0724 72.3154 22.6853 71.2287 19.6138C70.1903 16.678 67.4 14.6806 64.2856 14.6434C63.1181 14.6295 61.9827 14.6282 60.8954 14.6384V11.7506C61.9904 11.7408 63.1379 11.7426 64.3201 11.7568C68.6396 11.8083 72.5098 14.5788 73.9502 18.6508C75.4573 22.9114 74.051 27.6095 70.4508 30.3414L61.8585 36.8612C59.8593 38.3783 57.3761 39.2137 54.8665 39.2137H53.6822L55.5207 36.3009ZM20.8227 33.6117C20.2653 33.3963 19.7376 33.1056 19.2638 32.7461L10.6716 26.2263C8.86922 24.8587 8.16509 22.5066 8.91965 20.3735C9.64084 18.3348 11.5785 16.9478 13.7413 16.922C14.9002 16.9083 16.0263 16.9072 17.1046 16.9174V18.3502C17.1045 23.678 18.3843 28.9049 20.8227 33.6117ZM23.1333 39.2136C20.6236 39.2136 18.1406 38.3781 16.1413 36.8611L7.54901 30.3412C3.94882 27.6094 2.54254 22.9114 4.04967 18.6507C5.49024 14.5787 9.36022 11.8081 13.6798 11.7566C14.8627 11.7426 16.0103 11.7406 17.1045 11.7504V14.6382C16.0164 14.628 14.8813 14.6292 13.7141 14.6431C10.5998 14.6803 7.80952 16.6777 6.77114 19.6133C5.68447 22.685 6.69832 26.0721 9.29395 28.0416L17.8861 34.5614C19.1736 35.5384 20.7513 36.1449 22.3658 36.2913L24.1717 39.2136H23.1333ZM20.4271 57.6711C20.9041 56.558 22.234 54.7385 24.1507 52.5599C23.8953 55.4505 23.4951 57.6686 23.0185 58.7815C21.8998 61.3921 20.3498 62.3479 20.0179 62.2056C19.6847 62.0628 19.3083 60.2822 20.4271 57.6711ZM12.0092 51.293C12.0467 50.083 12.6204 47.9034 13.6091 45.1752C14.427 47.9595 14.8646 50.1704 14.8271 51.3803C14.7393 54.2089 13.6545 55.6639 13.2884 55.6638C13.287 55.6638 13.2855 55.6638 13.2843 55.6638C12.9222 55.6527 11.9214 54.1324 12.0092 51.293ZM3.58396 44.2657C3.07163 43.0532 2.65116 40.618 2.3972 37.4503C4.49132 39.8403 5.94422 41.8394 6.45655 43.052C7.63204 45.8344 7.24691 47.7663 6.8301 47.9424C6.41313 48.118 4.75975 47.048 3.58396 44.2657ZM11.4185 62.6128C10.2754 63.0115 8.03529 63.2569 5.1336 63.3114C7.43963 61.5502 9.34697 60.3496 10.4903 59.9509C11.6368 59.5511 12.6129 59.4136 13.3643 59.4136C14.3708 59.4136 14.9741 59.6608 15.0423 59.8567C15.1616 60.1986 14.1009 61.6776 11.4185 62.6128ZM23.4624 67.1223C22.7724 67.7935 21.6841 68.42 20.4763 68.8411H20.4761C19.3331 69.2398 17.0927 69.4852 14.1913 69.5397C16.4975 67.7785 18.405 66.5777 19.5482 66.1792C20.7587 65.771 21.8445 65.5751 22.9555 65.6688C23.7307 65.7471 24.0661 65.9874 24.1001 66.0849C24.1341 66.1824 24.0209 66.5792 23.4624 67.1223ZM30.8157 60.3005C30.791 60.2274 30.8239 60.2027 30.8526 60.1808L33.9083 57.8648C35.4962 56.6613 36.4442 54.7534 36.4442 52.761V48.8004C37.2279 48.9239 38.0272 48.9905 38.8378 48.9943C38.8634 48.9943 38.8878 48.9945 38.9132 48.9945C39.6475 48.9945 40.3728 48.9422 41.0861 48.8434V52.761C41.0861 54.7535 42.0341 56.6616 43.622 57.8648L46.6776 60.1808C46.7064 60.2027 46.7391 60.2274 46.7146 60.3005C46.6899 60.3736 46.6491 60.3736 46.613 60.3736H30.9175C30.8812 60.3736 30.8402 60.3736 30.8157 60.3005ZM64.3911 45.1752C65.3798 47.9034 65.9533 50.083 65.991 51.293C66.0789 54.1324 65.0781 55.6527 64.716 55.6638C64.7146 55.6638 64.7133 55.6638 64.7119 55.6638C64.3457 55.6638 63.2608 54.2086 63.1732 51.3802C63.1356 50.1704 63.5731 47.9595 64.3911 45.1752ZM54.9817 58.7815C54.505 57.6686 54.1048 55.4505 53.8495 52.5599C55.7663 54.7385 57.0962 56.5582 57.5731 57.6711C58.6917 60.2822 58.3153 62.0628 57.9823 62.2056C57.6505 62.3488 56.1002 61.3919 54.9817 58.7815ZM57.524 68.8411C56.3161 68.42 55.2277 67.7935 54.5378 67.1223C53.9793 66.5792 53.8661 66.1825 53.9001 66.0849C53.934 65.9872 54.2695 65.7471 55.0446 65.6688C56.1552 65.5751 57.242 65.7712 58.4521 66.1792C59.5951 66.5777 61.5026 67.7785 63.8088 69.5397C60.9079 69.4853 58.667 69.2398 57.524 68.8411ZM72.8665 63.3113C69.9653 63.2569 67.7248 63.0113 66.5815 62.6126H66.5816C63.8993 61.6774 62.8385 60.1985 62.9578 59.8564C63.0769 59.5143 64.8274 59.0154 67.5097 59.9507C68.6532 60.3494 70.5604 61.5502 72.8665 63.3113ZM74.4162 44.2657C73.2409 47.0475 71.589 48.1197 71.17 47.9424C70.7532 47.7663 70.3681 45.8344 71.5434 43.052C72.0559 41.8394 73.5088 39.8403 75.603 37.4503C75.349 40.6179 74.9285 43.0532 74.4162 44.2657Z" fill="white" fill-opacity="0.84"/>
<path d="M38.6385 32.6807C44.1102 32.6807 48.5618 28.2291 48.5618 22.7574C48.5618 17.2856 44.1102 12.834 38.6385 12.834C33.1667 12.834 28.7151 17.2856 28.7151 22.7574C28.7151 28.2291 33.1667 32.6807 38.6385 32.6807ZM38.6385 15.1129C42.8537 15.1129 46.2829 18.5422 46.2829 22.7574C46.2829 26.9726 42.8537 30.4018 38.6385 30.4018C34.4233 30.4018 30.994 26.9726 30.994 22.7574C30.994 18.5422 34.4233 15.1129 38.6385 15.1129Z" fill="white" fill-opacity="0.84"/>
<path d="M35.0044 24.3644L34.7034 26.1192C34.5923 26.7667 34.8534 27.4087 35.3848 27.7949C35.9162 28.181 36.6074 28.231 37.1892 27.9254L38.7652 27.0968L40.341 27.9253C40.9201 28.2301 41.6125 28.1821 42.1454 27.7949C42.6769 27.4087 42.938 26.7667 42.827 26.1194L42.5259 24.3644L43.801 23.1216C44.2713 22.6632 44.4374 21.9901 44.2346 21.3655C44.0317 20.7407 43.5017 20.2939 42.8515 20.1995L41.0895 19.9434L40.3016 18.3466C40.0109 17.7577 39.4224 17.3918 38.7656 17.3916C38.7655 17.3916 38.7655 17.3916 38.7653 17.3916C38.1086 17.3916 37.5198 17.7575 37.2289 18.3466L36.441 19.9434L34.679 20.1995C34.029 20.2939 33.4991 20.7407 33.296 21.3653C33.0931 21.9901 33.2592 22.663 33.7296 23.1216L35.0044 24.3644ZM37.0627 22.1558C37.6211 22.0746 38.1034 21.7243 38.3528 21.2186L38.765 20.3832L39.1774 21.2191C39.4271 21.7247 39.9093 22.0748 40.4672 22.1558L41.3891 22.2898L40.7222 22.9398C40.3182 23.3333 40.1338 23.9003 40.2292 24.4564L40.3867 25.3747L39.5624 24.9415C39.3127 24.8101 39.0389 24.7445 38.7649 24.7445C38.4911 24.7445 38.2172 24.81 37.9675 24.9413L37.143 25.3749L37.3005 24.4565C37.3956 23.9009 37.2117 23.3341 36.8079 22.9403L36.1406 22.2899L37.0627 22.1558Z" fill="white" fill-opacity="0.84"/>
</g>
<defs>
<clipPath id="clip0">
<rect width="78" height="78" fill="white"/>
</clipPath>
</defs>
</svg>
