<svg width="54" height="52" viewBox="0 0 54 52" fill="none" xmlns="http://www.w3.org/2000/svg">
<path d="M53.8959 28.4943C53.4111 23.6176 51.2324 19.02 47.7609 15.5485C44.7942 12.5819 41.1631 10.6755 37.3423 9.82785V7.14805C38.9029 6.75982 40.0628 5.34725 40.0628 3.66827C40.0628 1.69091 38.4542 0.0822754 36.4768 0.0822754H28.883C26.9056 0.0822754 25.297 1.69091 25.297 3.66827C25.297 5.34715 26.4569 6.75971 28.0174 7.14805V9.83533C24.2083 10.6866 20.5892 12.5903 17.631 15.5486C16.9836 16.1959 16.3866 16.8751 15.8402 17.5809C15.8137 17.5789 15.7872 17.5769 15.7602 17.5769H8.2443C7.6619 17.5769 7.1896 18.0491 7.1896 18.6316C7.1896 19.2141 7.6619 19.6863 8.2443 19.6863H14.405C13.6317 20.9809 13.0082 22.3405 12.5336 23.7401H1.0547C0.472296 23.7401 0 24.2123 0 24.7948C0 25.3773 0.472296 25.8495 1.0547 25.8495H11.9376C11.6336 27.1838 11.4591 28.5418 11.4141 29.9035H6.75011C6.1677 29.9035 5.6954 30.3757 5.6954 30.9582C5.6954 31.5407 6.1677 32.0129 6.75011 32.0129H11.4478C11.5368 33.3781 11.7563 34.7362 12.1063 36.0669H5.27352C4.69111 36.0669 4.21882 36.5391 4.21882 37.1216C4.21882 37.7041 4.69111 38.1763 5.27352 38.1763H12.7794C13.8141 40.9133 15.4311 43.4787 17.631 45.6786C21.1058 49.1534 25.7081 51.3327 30.5899 51.815C31.2866 51.8837 31.9839 51.9178 32.6802 51.9178C36.7959 51.9178 40.8592 50.7267 44.3071 48.4815C44.7952 48.1636 44.9332 47.5102 44.6153 47.0221C44.2975 46.534 43.6441 46.3959 43.156 46.7138C35.6088 51.6284 25.5013 50.5658 19.1225 44.187C11.6381 36.7027 11.6381 24.5247 19.1225 17.0402C26.6068 9.55594 38.7847 9.55594 46.2692 17.0402C52.6395 23.4106 53.708 33.5095 48.8096 41.053C48.4923 41.5415 48.6312 42.1948 49.1197 42.512C49.6084 42.8292 50.2615 42.6903 50.5786 42.2018C53.1958 38.1712 54.3739 33.3032 53.8959 28.4943ZM27.4064 3.66837C27.4064 2.85414 28.0687 2.19179 28.883 2.19179H36.4768C37.2911 2.19179 37.9534 2.85414 37.9534 3.66837C37.9534 4.48261 37.2911 5.14496 36.4768 5.14496H36.2876H29.0721H28.883C28.0687 5.14496 27.4064 4.4825 27.4064 3.66837ZM30.1268 9.47273V7.25437H35.2329V9.46893C33.5374 9.26727 31.822 9.26854 30.1268 9.47273Z" fill="#7AC185"/>
<path d="M47.0154 43.8777C46.7369 43.8777 46.4659 43.9905 46.2698 44.1867C46.0726 44.3829 45.9607 44.655 45.9607 44.9324C45.9607 45.2098 46.0726 45.4819 46.2698 45.678C46.4659 45.8753 46.737 45.9871 47.0154 45.9871C47.2928 45.9871 47.5638 45.8753 47.761 45.678C47.9572 45.4819 48.0701 45.2098 48.0701 44.9324C48.0701 44.655 47.9573 44.3829 47.761 44.1867C47.5638 43.9905 47.2927 43.8777 47.0154 43.8777Z" fill="#7AC185"/>
<path d="M32.696 14.252C23.6743 14.252 16.3345 21.5916 16.3345 30.6135C16.3345 39.6353 23.6743 46.975 32.696 46.975C41.7177 46.975 49.0575 39.6353 49.0575 30.6135C49.0575 21.5916 41.7177 14.252 32.696 14.252ZM32.696 44.8656C24.8373 44.8656 18.4439 38.4721 18.4439 30.6135C18.4439 22.7549 24.8373 16.3614 32.696 16.3614C40.5547 16.3614 46.9481 22.7549 46.9481 30.6135C46.9481 38.4721 40.5547 44.8656 32.696 44.8656Z" fill="#7AC185"/>
<path d="M39.3675 22.4503L34.1435 27.6741C33.7067 27.4581 33.2153 27.3361 32.6958 27.3361C32.1763 27.3361 31.685 27.4581 31.2481 27.6741L28.9102 25.3361C28.4982 24.9243 27.8306 24.9243 27.4185 25.3361C27.0067 25.748 27.0067 26.4158 27.4185 26.8277L29.7565 29.1657C29.5404 29.6025 29.4184 30.0939 29.4184 30.6134C29.4184 32.4205 30.8886 33.8907 32.6958 33.8907C34.5031 33.8907 35.9732 32.4205 35.9732 30.6134C35.9732 30.0939 35.8512 29.6025 35.6352 29.1657L40.7058 24.0951L40.859 23.9418C41.2709 23.53 41.2709 22.8621 40.859 22.4503C40.4472 22.0384 39.7795 22.0384 39.3675 22.4503ZM32.6958 31.7814C32.0518 31.7814 31.5279 31.2575 31.5279 30.6135C31.5279 29.9695 32.0518 29.4455 32.6958 29.4455C33.3398 29.4455 33.8638 29.9695 33.8638 30.6135C33.8638 31.2575 33.3398 31.7814 32.6958 31.7814Z" fill="#7AC185"/>
<path d="M43.9728 29.5717H42.9956C42.4132 29.5717 41.9409 30.0438 41.9409 30.6263C41.9409 31.2088 42.4132 31.681 42.9956 31.681H43.9728C44.5552 31.681 45.0275 31.2088 45.0275 30.6263C45.0275 30.0438 44.5552 29.5717 43.9728 29.5717Z" fill="#7AC185"/>
<path d="M22.3963 29.5459H21.4192C20.8368 29.5459 20.3645 30.0181 20.3645 30.6006C20.3645 31.1831 20.8368 31.6553 21.4192 31.6553H22.3963C22.9786 31.6553 23.4509 31.1831 23.4509 30.6006C23.4509 30.0181 22.9786 29.5459 22.3963 29.5459Z" fill="#7AC185"/>
<path d="M32.7087 21.3683C33.2911 21.3683 33.7634 20.8961 33.7634 20.3136V19.3365C33.7634 18.754 33.2911 18.2819 32.7087 18.2819C32.1263 18.2819 31.6541 18.754 31.6541 19.3365V20.3136C31.6541 20.8961 32.1263 21.3683 32.7087 21.3683Z" fill="#7AC185"/>
<path d="M32.6829 39.8585C32.1005 39.8585 31.6282 40.3307 31.6282 40.9132V41.8903C31.6282 42.4728 32.1005 42.945 32.6829 42.945C33.2653 42.945 33.7375 42.4728 33.7375 41.8903V40.9132C33.7375 40.3307 33.2653 39.8585 32.6829 39.8585Z" fill="#7AC185"/>
<path d="M1.05469 36.0665C0.777305 36.0665 0.505195 36.1794 0.309023 36.3756C0.112852 36.5717 0 36.8438 0 37.1212C0 37.3997 0.112746 37.6707 0.309023 37.8669C0.505301 38.0631 0.777305 38.1759 1.05469 38.1759C1.33207 38.1759 1.60418 38.0631 1.80025 37.8669C1.99642 37.6707 2.10938 37.3986 2.10938 37.1212C2.10938 36.8438 1.99652 36.5717 1.80025 36.3756C1.60418 36.1794 1.33207 36.0665 1.05469 36.0665Z" fill="#7AC185"/>
</svg>
