<svg width="54" height="54" viewBox="0 0 54 54" fill="none" xmlns="http://www.w3.org/2000/svg">
<g clip-path="url(#clip0)">
<path d="M5.27344 47.671C4.69089 47.671 4.21875 48.1432 4.21875 48.7257V48.7265C4.21875 49.3087 4.69089 49.7808 5.27344 49.7808C5.85599 49.7808 6.32812 49.3083 6.32812 48.7257C6.32812 48.1432 5.85599 47.671 5.27344 47.671Z" fill="#7AC185"/>
<path d="M52.9452 0H44.5077C43.9252 0 43.4531 0.472137 43.4531 1.05469V2.15552L42.0457 2.14687C42.0436 2.14687 42.0412 2.14687 42.0391 2.14687C41.4599 2.14687 40.9881 2.61447 40.9844 3.19455C40.9807 3.7771 41.45 4.25253 42.0325 4.25624L43.4531 4.26489V15.2073C40.6915 16.9467 38.199 15.9451 35.568 14.8855C33.8344 14.1872 32.041 13.4654 30.2517 13.6899C29.6873 13.7608 28.1638 13.982 26.5513 14.216C25.0232 14.4377 23.4428 14.6672 22.8994 14.7355C22.623 14.7702 22.3474 14.6931 22.1232 14.5188C21.8946 14.3405 21.7487 14.0846 21.7133 13.7979C21.6902 13.6112 21.6289 13.1148 22.9505 12.5013C25.7483 11.204 28.7299 10.0933 31.1309 9.45428C31.6937 9.30432 32.0286 8.72672 31.8787 8.16353C31.7291 7.60075 31.1515 7.26622 30.5883 7.41577C28.0744 8.08484 24.9668 9.24129 22.0631 10.5881C21.0529 11.0565 20.432 11.6016 20.0662 12.1512L9.49212 15.0347C8.37975 15.3144 7.80915 14.8715 7.64559 14.3635C7.48491 13.8634 7.67896 13.2186 8.47451 12.9047C9.30219 12.5895 11.2777 11.7198 13.7776 10.6198C17.0908 9.16177 21.2136 7.34697 24.5012 6.01337C28.4081 4.42845 29.5987 4.1895 33.5987 4.20392H33.602C34.1829 4.20392 34.6547 3.73384 34.6567 3.15253C34.6584 2.56998 34.1875 2.09619 33.6049 2.09454C29.3384 2.08012 27.8581 2.37552 23.7086 4.0589C20.3921 5.40404 16.2537 7.22543 12.9281 8.68881C10.548 9.7365 8.49222 10.6412 7.71851 10.9354C7.71522 10.9366 7.71192 10.9379 7.70862 10.9391C5.73809 11.712 5.17531 13.5717 5.63756 15.0091C6.09281 16.4255 7.65836 17.6767 10.0195 17.0773C10.0256 17.0756 10.0314 17.0744 10.0376 17.0723L19.6909 14.4402C19.8622 15.1298 20.2569 15.7392 20.8275 16.1833C21.497 16.7044 22.3263 16.9335 23.1623 16.8284C23.7259 16.7576 25.2453 16.5368 26.8541 16.3036C28.3863 16.0811 29.9699 15.8512 30.5146 15.7828C31.7609 15.6263 33.2275 16.2166 34.7799 16.842C36.425 17.5045 38.2991 18.2597 40.3273 18.2593C41.3342 18.2593 42.3794 18.0714 43.4531 17.5952V17.9297C43.4531 18.5122 43.9252 18.9844 44.5077 18.9844H52.9452C53.5278 18.9844 53.9999 18.5122 53.9999 17.9297V1.05469C53.9999 0.472137 53.5278 0 52.9452 0ZM51.8906 16.875H45.5624V3.22462V3.2238C45.5624 3.2238 45.5624 3.22298 45.5624 3.22256V2.10938H51.8906V16.875Z" fill="#7AC185"/>
<path d="M48.7266 6.3289C49.3091 6.3289 49.7812 5.85677 49.7812 5.27422V5.27339C49.7812 4.69125 49.3091 4.21912 48.7266 4.21912C48.144 4.21912 47.6719 4.69167 47.6719 5.27422C47.6719 5.85677 48.144 6.3289 48.7266 6.3289Z" fill="#7AC185"/>
<path d="M19.6172 34.3828C22.12 34.3828 24.3349 33.1295 25.6705 31.2188H29.5671C29.8468 31.2188 30.115 31.1075 30.3128 30.9098L32.1132 29.1094H33.3491L35.1495 30.9098C35.3473 31.1075 35.6155 31.2188 35.8952 31.2188H37.5469C37.8266 31.2188 38.0948 31.1075 38.2926 30.9098L41.4566 27.7457C41.6544 27.5479 41.7656 27.2797 41.7656 27V23.8359C41.7656 23.2538 41.2935 22.7812 40.7109 22.7812H25.6709C24.3349 20.8705 22.1204 19.6172 19.6172 19.6172C15.5463 19.6172 12.2344 22.9292 12.2344 27C12.2344 31.0708 15.5463 34.3828 19.6172 34.3828ZM39.6562 24.8906V26.5633L37.1102 29.1094H36.3323L34.5315 27.309C34.3338 27.1112 34.0656 27 33.7858 27H31.6765C31.3967 27 31.1285 27.1112 30.9308 27.309L29.1304 29.1094H26.6914C26.8912 28.4407 27 27.7329 27 27C27 26.2671 26.8912 25.5593 26.6914 24.8906H39.6562ZM19.6172 21.7266C22.525 21.7266 24.8906 24.0922 24.8906 27C24.8906 29.9078 22.525 32.2734 19.6172 32.2734C16.7094 32.2734 14.3438 29.9078 14.3438 27C14.3438 24.0922 16.7094 21.7266 19.6172 21.7266Z" fill="#7AC185"/>
<path d="M17.5078 28.0547C18.0904 28.0547 18.5625 27.5822 18.5625 26.9996C18.5625 26.4171 18.0904 25.9449 17.5078 25.9449C16.9253 25.9449 16.4531 26.4171 16.4531 26.9996V27.0005C16.4531 27.583 16.9253 28.0547 17.5078 28.0547Z" fill="#7AC185"/>
<path d="M37.8206 4.22986H37.821C38.4035 4.22986 38.8752 3.75731 38.8752 3.17517C38.8752 2.59262 38.4027 2.12048 37.8206 2.12048C37.238 2.12048 36.7659 2.59262 36.7659 3.17517C36.7659 3.75731 37.238 4.22986 37.8206 4.22986Z" fill="#7AC185"/>
<path d="M43.9805 36.9227C43.9743 36.9243 43.9685 36.9256 43.9623 36.9276L34.3091 39.5598C34.1377 38.8701 33.743 38.2608 33.1724 37.8167C32.5029 37.2955 31.6736 37.0665 30.8377 37.1715C30.2741 37.2424 28.7547 37.4632 27.1458 37.6964C25.6137 37.9189 24.03 38.1487 23.4853 38.2171C22.2395 38.3733 20.7724 37.7833 19.22 37.1579C16.758 36.1667 13.7822 34.9686 10.5469 36.4036V36.0707C10.5469 35.4881 10.0747 35.016 9.49219 35.016H1.05469C0.472137 35.016 0 35.4881 0 36.0707V52.9453C0 53.5278 0.472137 54 1.05469 54H9.49219C10.0747 54 10.5469 53.5278 10.5469 52.9453V51.8444L11.9542 51.8531H11.9608C12.5401 51.8531 13.0118 51.3855 13.0155 50.805C13.0192 50.2229 12.55 49.7474 11.9674 49.7437L10.5469 49.7351V38.7927C13.3084 37.0533 15.8009 38.0548 18.4319 39.114C20.166 39.8128 21.9597 40.5346 23.7482 40.3096C24.313 40.2388 25.8361 40.0179 27.4487 39.7839C28.9767 39.5619 30.5571 39.3328 31.1005 39.2644C31.377 39.2298 31.6526 39.3064 31.8767 39.4811C32.1058 39.6595 32.2512 39.9153 32.2866 40.2021C32.3097 40.3887 32.3715 40.8852 31.0494 41.4982C28.2516 42.796 25.2705 43.9067 22.8694 44.5457C22.3066 44.6956 21.9717 45.2732 22.1212 45.836C22.2712 46.3992 22.8492 46.7333 23.4116 46.5842C25.9255 45.9151 29.0332 44.7587 31.9373 43.4119C32.947 42.9435 33.5679 42.3984 33.9342 41.8488L44.5078 38.9653C45.6198 38.6852 46.1908 39.1284 46.3543 39.6364C46.515 40.1366 46.321 40.7813 45.5258 41.0953C44.6986 41.4104 42.7223 42.2802 40.2219 43.3806C36.9091 44.8386 32.7864 46.653 29.4987 47.9866C25.5918 49.5715 24.3987 49.8113 20.4012 49.796C20.4004 49.796 20.3991 49.796 20.3979 49.796C19.817 49.796 19.3453 50.2661 19.3432 50.8474C19.3416 51.43 19.8125 51.9038 20.395 51.9054C20.4811 51.9058 20.566 51.9058 20.65 51.9058C24.7229 51.9058 26.2259 51.5907 30.2914 49.9411C33.6075 48.5959 37.7463 46.7745 41.0714 45.3111C43.4519 44.2635 45.5077 43.3587 46.281 43.0646C46.2843 43.0633 46.2876 43.0621 46.2913 43.0609C48.2618 42.288 48.8246 40.4283 48.3624 38.9908C47.9071 37.5748 46.3416 36.3236 43.9805 36.9227ZM2.10938 51.8906V37.125H8.4375V50.7766V50.7778V51.8906H2.10938Z" fill="#7AC185"/>
<path d="M16.1799 49.7701H16.179C15.5965 49.7701 15.1248 50.2427 15.1248 50.8248C15.1248 51.4074 15.5973 51.8795 16.1799 51.8795C16.7624 51.8795 17.2345 51.4074 17.2345 50.8248C17.2345 50.2427 16.7624 49.7701 16.1799 49.7701Z" fill="#7AC185"/>
</g>
<defs>
<clipPath id="clip0">
<rect width="54" height="54" fill="white"/>
</clipPath>
</defs>
</svg>
