<svg width="55" height="55" viewBox="0 0 55 55" fill="none" xmlns="http://www.w3.org/2000/svg">
<path d="M12.8194 12.4397L11.5038 11.2501C10.8314 11.9935 9.87157 12.4193 8.87092 12.4193C6.91398 12.4193 5.32253 10.8279 5.32253 8.87092C5.32253 6.91398 6.91398 5.32253 8.87092 5.32253C10.8279 5.32253 12.4193 6.91398 12.4193 8.87092C12.4193 9.38721 12.3111 9.88487 12.0982 10.3497L13.71 11.0895C14.0312 10.3914 14.1935 9.64447 14.1935 8.87092C14.1935 5.93552 11.8063 3.54834 8.87092 3.54834C5.93552 3.54834 3.54834 5.93552 3.54834 8.87092C3.54834 11.8063 5.93552 14.1935 8.87092 14.1935C10.3719 14.1935 11.8116 13.5539 12.8194 12.4397Z" fill="#7AC185"/>
<path d="M3.54834 46.1291C3.54834 49.0645 5.93552 51.4517 8.87092 51.4517C11.8063 51.4517 14.1935 49.0645 14.1935 46.1291C14.1935 43.1937 11.8063 40.8065 8.87092 40.8065C5.93552 40.8065 3.54834 43.1937 3.54834 46.1291ZM12.4193 46.1291C12.4193 48.086 10.8279 49.6775 8.87092 49.6775C6.91398 49.6775 5.32253 48.086 5.32253 46.1291C5.32253 44.1722 6.91398 42.5807 8.87092 42.5807C10.8279 42.5807 12.4193 44.1722 12.4193 46.1291Z" fill="#7AC185"/>
<path d="M17.7419 8.87097C17.7419 3.97952 13.7624 0 8.87097 0C3.97952 0 0 3.97952 0 8.87097C0 11.6751 1.31823 14.2929 3.54839 15.9669V39.0331C1.31823 40.7071 0 43.3249 0 46.129C0 51.0205 3.97952 55 8.87097 55C13.7624 55 17.7419 51.0205 17.7419 46.129C17.7419 43.3249 16.4237 40.7071 14.1935 39.0331V15.9669C16.4237 14.2929 17.7419 11.6751 17.7419 8.87097ZM12.8132 40.229C14.7879 41.5507 15.9677 43.756 15.9677 46.129C15.9677 50.042 12.784 53.2258 8.87097 53.2258C4.95798 53.2258 1.77419 50.042 1.77419 46.129C1.77419 43.756 2.95403 41.5507 4.92871 40.229L5.32258 39.9655V15.0345L4.92871 14.771C2.95403 13.4493 1.77419 11.244 1.77419 8.87097C1.77419 4.95798 4.95798 1.77419 8.87097 1.77419C12.784 1.77419 15.9677 4.95798 15.9677 8.87097C15.9677 11.244 14.7879 13.4493 12.8132 14.771L12.4194 15.0345V39.9655L12.8132 40.229Z" fill="#7AC185"/>
<path d="M51.4516 39.0331V15.9669C53.6818 14.2929 55 11.6751 55 8.87097C55 3.97952 51.0205 0 46.129 0C41.2376 0 37.2581 3.97952 37.2581 8.87097C37.2581 11.6751 38.5763 14.2929 40.8064 15.9669V39.0331C38.5763 40.7071 37.2581 43.3249 37.2581 46.129C37.2581 51.0205 41.2376 55 46.129 55C51.0205 55 55 51.0205 55 46.129C55 43.3249 53.6818 40.7071 51.4516 39.0331ZM46.129 53.2258C42.216 53.2258 39.0322 50.042 39.0322 46.129C39.0322 43.756 40.2121 41.5507 42.1868 40.229L42.5806 39.9655V15.0345L42.1868 14.771C40.2121 13.4493 39.0322 11.244 39.0322 8.87097C39.0322 4.95798 42.216 1.77419 46.129 1.77419C50.042 1.77419 53.2258 4.95798 53.2258 8.87097C53.2258 11.244 52.046 13.4493 50.0713 14.771L49.6774 15.0345V39.9655L50.0713 40.229C52.046 41.5507 53.2258 43.756 53.2258 46.129C53.2258 50.042 50.042 53.2258 46.129 53.2258Z" fill="#7AC185"/>
<path d="M9.75808 15.9678H7.98389V17.742H9.75808V15.9678Z" fill="#7AC185"/>
<path d="M9.75808 21.2904H7.98389V23.0646H9.75808V21.2904Z" fill="#7AC185"/>
<path d="M9.75808 26.6129H7.98389V28.3871H9.75808V26.6129Z" fill="#7AC185"/>
<path d="M9.75808 31.9355H7.98389V33.7097H9.75808V31.9355Z" fill="#7AC185"/>
<path d="M9.75808 37.2581H7.98389V39.0322H9.75808V37.2581Z" fill="#7AC185"/>
<path d="M31.0484 17.7419C31.0484 15.7849 29.457 14.1935 27.5 14.1935C25.5431 14.1935 23.9517 15.7849 23.9517 17.7419C23.9517 19.6988 25.5431 21.2903 27.5 21.2903C29.457 21.2903 31.0484 19.6988 31.0484 17.7419ZM27.5 19.5161C26.5216 19.5161 25.7259 18.7203 25.7259 17.7419C25.7259 16.7634 26.5216 15.9677 27.5 15.9677C28.4785 15.9677 29.2742 16.7634 29.2742 17.7419C29.2742 18.7203 28.4785 19.5161 27.5 19.5161Z" fill="#7AC185"/>
<path d="M23.9517 47.9032C23.9517 49.8602 25.5431 51.4516 27.5 51.4516C29.457 51.4516 31.0484 49.8602 31.0484 47.9032C31.0484 45.9463 29.457 44.3549 27.5 44.3549C25.5431 44.3549 23.9517 45.9463 23.9517 47.9032ZM29.2742 47.9032C29.2742 48.8817 28.4785 49.6774 27.5 49.6774C26.5216 49.6774 25.7259 48.8817 25.7259 47.9032C25.7259 46.9248 26.5216 46.1291 27.5 46.1291C28.4785 46.1291 29.2742 46.9248 29.2742 47.9032Z" fill="#7AC185"/>
<path d="M34.5967 17.7419C34.5967 13.8289 31.413 10.6451 27.5 10.6451C23.587 10.6451 20.4032 13.8289 20.4032 17.7419C20.4032 20.2701 21.7791 22.6209 23.9516 23.8806V41.7645C21.7791 43.0242 20.4032 45.375 20.4032 47.9032C20.4032 51.8162 23.587 55 27.5 55C31.413 55 34.5967 51.8162 34.5967 47.9032C34.5967 45.375 33.2209 43.0242 31.0484 41.7645V23.8806C33.2209 22.6209 34.5967 20.2701 34.5967 17.7419ZM29.7798 43.1005C31.6285 43.9796 32.8226 45.8647 32.8226 47.9032C32.8226 50.8386 30.4354 53.2258 27.5 53.2258C24.5646 53.2258 22.1774 50.8386 22.1774 47.9032C22.1774 45.8647 23.3714 43.9796 25.2201 43.1005L25.7258 42.8592V22.7859L25.2201 22.5455C23.3714 21.6655 22.1774 19.7805 22.1774 17.7419C22.1774 14.8065 24.5646 12.4193 27.5 12.4193C30.4354 12.4193 32.8226 14.8065 32.8226 17.7419C32.8226 19.7805 31.6285 21.6655 29.7798 22.5447L29.2742 22.7859V42.8601L29.7798 43.1005Z" fill="#7AC185"/>
<path d="M48.6902 13.3065L51.2512 8.87103L48.6902 4.43555H43.569L41.0079 8.87103L43.569 13.3065H48.6902ZM44.5927 6.20974H47.6656L49.202 8.87103L47.6656 11.5323H44.5927L43.0562 8.87103L44.5927 6.20974Z" fill="#7AC185"/>
<path d="M43.5679 41.6935L41.0068 46.129L43.5679 50.5644H48.6891L51.2501 46.129L48.6891 41.6935H43.5679ZM47.6654 48.7903H44.5925L43.056 46.129L44.5925 43.4677H47.6654L49.2018 46.129L47.6654 48.7903Z" fill="#7AC185"/>
<path d="M47.0161 38.1451H45.2419V39.9193H47.0161V38.1451Z" fill="#7AC185"/>
<path d="M47.0161 15.0807H45.2419V16.8549H47.0161V15.0807Z" fill="#7AC185"/>
<path d="M47.0161 18.629H45.2419V36.371H47.0161V18.629Z" fill="#7AC185"/>
</svg>
