<svg width="132" height="132" viewBox="0 0 132 132" fill="none" xmlns="http://www.w3.org/2000/svg">
<g clip-path="url(#clip0)">
<path d="M131.746 72.0972C130.56 60.1762 125.235 48.9378 116.749 40.4517C109.497 33.2001 100.621 28.5401 91.2812 26.468V19.9174C95.0959 18.9684 97.9314 15.5155 97.9314 11.4113C97.9314 6.57773 93.9991 2.64551 89.1656 2.64551H70.6028C65.7693 2.64551 61.837 6.57773 61.837 11.4113C61.837 15.5152 64.6725 18.9681 68.4869 19.9174V26.4863C59.1759 28.5672 50.3291 33.2207 43.0979 40.452C41.5154 42.0345 40.0562 43.6945 38.7204 45.4198C38.6557 45.415 38.591 45.4101 38.525 45.4101H20.1527C18.7291 45.4101 17.5746 46.5643 17.5746 47.9882C17.5746 49.4121 18.7291 50.5664 20.1527 50.5664H35.2123C33.322 53.7311 31.7978 57.0546 30.6376 60.4758H2.57817C1.1545 60.4758 0 61.6301 0 63.054C0 64.4779 1.1545 65.6321 2.57817 65.6321H29.1807C28.4377 68.8938 28.0112 72.2132 27.9012 75.5418H16.5003C15.0766 75.5418 13.9221 76.6961 13.9221 78.12C13.9221 79.5439 15.0766 80.6982 16.5003 80.6982H27.9834C28.201 84.0353 28.7375 87.355 29.5932 90.6079H12.8908C11.4672 90.6079 10.3127 91.7621 10.3127 93.186C10.3127 94.61 11.4672 95.7642 12.8908 95.7642H31.2386C33.7678 102.455 37.7204 108.726 43.0979 114.103C51.5919 122.597 62.842 127.924 74.7753 129.103C76.4784 129.271 78.1829 129.355 79.885 129.355C89.9455 129.355 99.8781 126.443 108.306 120.955C109.499 120.178 109.837 118.58 109.06 117.387C108.283 116.194 106.686 115.857 105.492 116.634C87.0438 128.647 62.3364 126.05 46.7439 110.457C28.4488 92.162 28.4488 62.3937 46.7439 44.0983C65.0389 25.8034 94.8071 25.8034 113.103 44.0983C128.674 59.6704 131.286 84.3566 119.312 102.796C118.537 103.99 118.876 105.587 120.07 106.363C121.265 107.138 122.861 106.798 123.637 105.604C130.034 95.7518 132.914 83.8523 131.746 72.0972ZM66.9934 11.4115C66.9934 9.42118 68.6124 7.8021 70.6028 7.8021H89.1656C91.1559 7.8021 92.775 9.42118 92.775 11.4115C92.775 13.4019 91.1559 15.021 89.1656 15.021H88.7031H71.0651H70.6028C68.6124 15.021 66.9934 13.4016 66.9934 11.4115ZM73.6432 25.5999V20.1773H86.1249V25.5907C81.9802 25.0977 77.7871 25.1008 73.6432 25.5999Z" fill="white" fill-opacity="0.97"/>
<path d="M114.927 109.701C114.246 109.701 113.584 109.977 113.104 110.456C112.622 110.936 112.349 111.601 112.349 112.279C112.349 112.957 112.622 113.622 113.104 114.102C113.584 114.584 114.246 114.857 114.927 114.857C115.605 114.857 116.267 114.584 116.749 114.102C117.229 113.622 117.505 112.957 117.505 112.279C117.505 111.601 117.229 110.936 116.749 110.456C116.267 109.977 115.605 109.701 114.927 109.701Z" fill="white" fill-opacity="0.97"/>
<path d="M79.923 37.2825C57.8699 37.2825 39.9282 55.2239 39.9282 77.2773C39.9282 99.3307 57.8699 117.272 79.923 117.272C101.976 117.272 119.918 99.3307 119.918 77.2773C119.918 55.2239 101.976 37.2825 79.923 37.2825ZM79.923 112.116C60.7129 112.116 45.0846 96.4872 45.0846 77.2773C45.0846 58.0674 60.7129 42.4388 79.923 42.4388C99.1332 42.4388 114.762 58.0674 114.762 77.2773C114.762 96.4872 99.1332 112.116 79.923 112.116Z" fill="white" fill-opacity="0.97"/>
<path d="M96.2317 57.3227L83.462 70.0921C82.3942 69.5641 81.193 69.2658 79.9233 69.2658C78.6532 69.2658 77.4523 69.5641 76.3845 70.0921L70.6694 64.3771C69.6624 63.3703 68.0304 63.3703 67.0231 64.3771C66.0164 65.3839 66.0164 67.0164 67.0231 68.0231L72.7382 73.7382C72.2099 74.806 71.9119 76.0072 71.9119 77.277C71.9119 81.6944 75.5056 85.2884 79.9233 85.2884C84.3409 85.2884 87.9346 81.6944 87.9346 77.277C87.9346 76.0072 87.6363 74.806 87.1083 73.7382L99.5031 61.3434L99.8777 60.9688C100.884 59.962 100.884 58.3295 99.8777 57.3227C98.8709 56.3159 97.239 56.3159 96.2317 57.3227ZM79.9233 80.1323C78.349 80.1323 77.0682 78.8514 77.0682 77.2772C77.0682 75.703 78.349 74.4221 79.9233 74.4221C81.4975 74.4221 82.7783 75.703 82.7783 77.2772C82.7783 78.8514 81.4975 80.1323 79.9233 80.1323Z" fill="white" fill-opacity="0.97"/>
<path d="M107.488 74.7305H105.1C103.676 74.7305 102.521 75.8847 102.521 77.3086C102.521 78.7325 103.676 79.8867 105.1 79.8867H107.488C108.912 79.8867 110.066 78.7325 110.066 77.3086C110.066 75.8847 108.912 74.7305 107.488 74.7305Z" fill="white" fill-opacity="0.97"/>
<path d="M54.7463 74.6675H52.3579C50.9343 74.6675 49.7798 75.8217 49.7798 77.2456C49.7798 78.6695 50.9343 79.8237 52.3579 79.8237H54.7463C56.1699 79.8237 57.3244 78.6695 57.3244 77.2456C57.3244 75.8217 56.1699 74.6675 54.7463 74.6675Z" fill="white" fill-opacity="0.97"/>
<path d="M79.9551 54.6782C81.3787 54.6782 82.5332 53.5239 82.5332 52.1V49.7117C82.5332 48.2878 81.3787 47.1335 79.9551 47.1335C78.5314 47.1335 77.377 48.2878 77.377 49.7117V52.1C77.377 53.5239 78.5314 54.6782 79.9551 54.6782Z" fill="white" fill-opacity="0.97"/>
<path d="M79.8916 99.8762C78.468 99.8762 77.3135 101.03 77.3135 102.454V104.843C77.3135 106.267 78.468 107.421 79.8916 107.421C81.3152 107.421 82.4697 106.267 82.4697 104.843V102.454C82.4697 101.03 81.3152 99.8762 79.8916 99.8762Z" fill="white" fill-opacity="0.97"/>
<path d="M2.57812 90.6069C1.90008 90.6069 1.23492 90.8828 0.755391 91.3623C0.275859 91.8419 0 92.507 0 93.1851C0 93.8657 0.275602 94.5283 0.755391 95.0078C1.23518 95.4873 1.90008 95.7632 2.57812 95.7632C3.25617 95.7632 3.92133 95.4873 4.4006 95.0078C4.88013 94.5283 5.15625 93.8631 5.15625 93.1851C5.15625 92.507 4.88039 91.8419 4.4006 91.3623C3.92133 90.8828 3.25617 90.6069 2.57812 90.6069Z" fill="white" fill-opacity="0.97"/>
</g>
<defs>
<clipPath id="clip0">
<rect width="132" height="132" fill="white"/>
</clipPath>
</defs>
</svg>
