<svg width="73" height="73" viewBox="0 0 73 73" fill="none" xmlns="http://www.w3.org/2000/svg">
<g clip-path="url(#clip0)">
<path d="M39.7166 41.4919V22.6616C39.7166 22.0629 39.2315 21.5778 38.6323 21.5778C38.0335 21.5778 37.5484 22.0629 37.5484 22.6616V42.0394C37.5484 42.3903 37.7178 42.7189 38.0035 42.9221C42.0519 45.8066 44.4685 50.4916 44.4685 55.4551C44.4685 63.9335 37.5707 70.8318 29.0918 70.8318C20.6134 70.8318 13.7151 63.9335 13.7151 55.4551C13.7151 50.4916 16.1322 45.8066 20.1806 42.9221C20.4658 42.7189 20.6357 42.3903 20.6357 42.0394V10.6249C20.6357 5.9621 24.429 2.16819 29.0918 2.16819C33.7545 2.16819 37.5484 5.9621 37.5484 10.6249V18.3246C37.5484 18.9233 38.0335 19.409 38.6323 19.409C39.2315 19.409 39.7166 18.9233 39.7166 18.3246V10.6249C39.7166 4.76634 34.9503 0 29.0918 0C23.2333 0 18.4669 4.76634 18.4669 10.6249V41.4919C14.1239 44.8029 11.5469 49.9809 11.5469 55.4551C11.5469 65.1292 19.4176 73 29.0918 73C38.7665 73 46.6372 65.1292 46.6372 55.4551C46.6372 49.9803 44.0603 44.8029 39.7166 41.4919Z" fill="#011634"/>
<path d="M29.0947 65.0496C27.1176 65.0496 25.2178 64.4503 23.6005 63.3163C23.1103 62.9721 22.4337 63.0908 22.09 63.5814C21.7464 64.0716 21.865 64.7477 22.3557 65.0913C24.3395 66.4826 26.6698 67.2177 29.0947 67.2177C35.5809 67.2177 40.858 61.9412 40.858 55.455C40.858 51.6578 39.0078 48.0733 35.9095 45.8656L33.9374 44.4609V10.6248C33.9374 7.95425 31.7653 5.78217 29.0947 5.78217C26.4247 5.78217 24.2521 7.95425 24.2521 10.6248V44.4609L22.2805 45.8656C19.1816 48.0733 17.332 51.6578 17.332 55.455C17.332 57.8087 18.0277 60.0816 19.3443 62.0287C19.6796 62.5244 20.3535 62.6547 20.8497 62.3194C21.3459 61.9841 21.4757 61.3102 21.1404 60.814C20.0677 59.2272 19.5002 57.3737 19.5002 55.455C19.5002 52.3573 21.0101 49.4328 23.5386 47.6316L25.9652 45.9023C26.251 45.699 26.4208 45.3699 26.4208 45.0196V40.8335H31.7692V45.0196C31.7692 45.3699 31.9385 45.699 32.2242 45.9023L34.6514 47.6316C37.1799 49.4328 38.6892 52.3573 38.6892 55.455C38.6892 60.7455 34.3852 65.0496 29.0947 65.0496ZM31.7692 22.0979H26.4208V15.9826H31.7692V22.0979ZM26.4208 24.2661H31.7692V30.3813H26.4208V24.2661ZM29.0947 7.95036C30.5695 7.95036 31.7692 9.15002 31.7692 10.6248V13.8144H26.4208V10.6248C26.4208 9.15002 27.6205 7.95036 29.0947 7.95036ZM26.4208 38.6654V32.5501H31.7692V38.6654H26.4208Z" fill="#011634"/>
<path d="M60.2473 24.2466C59.491 24.2466 59.0777 24.5368 59.0209 25.1065C58.8578 26.3847 58.6116 28.3151 55.6013 28.3151C53.134 28.3151 51.9344 27.062 51.9344 24.4839V16.2088C51.9344 13.6663 53.1407 12.377 55.5189 12.377C58.2852 12.377 58.9502 14.059 59.0209 15.4703C59.0516 16.0283 59.4877 16.3357 60.2473 16.3357C61.0243 16.3357 61.4743 16.1174 61.4743 14.9991C61.4743 12.1397 59.0026 10.1431 55.4637 10.1431C51.6615 10.1431 49.4805 12.3541 49.4805 16.2088V24.4839C49.4805 26.5557 50.0725 28.1335 51.2404 29.1733C52.2507 30.0734 53.7016 30.549 55.4364 30.549C58.9914 30.549 61.4743 28.5184 61.4743 25.6106C61.4743 24.475 61.0048 24.2466 60.2473 24.2466Z" fill="#011634"/>
<path d="M51.0129 7.0498C51.0129 5.09715 49.424 3.50818 47.4713 3.50818C45.5181 3.50818 43.9297 5.09715 43.9297 7.0498C43.9297 9.00245 45.5181 10.5914 47.4713 10.5914C49.424 10.5914 51.0129 9.00245 51.0129 7.0498ZM47.4713 8.42323C46.7139 8.42323 46.0979 7.80669 46.0979 7.0498C46.0979 6.29235 46.7139 5.67637 47.4713 5.67637C48.2282 5.67637 48.8442 6.29235 48.8442 7.0498C48.8442 7.80669 48.2282 8.42323 47.4713 8.42323Z" fill="#011634"/>
</g>
<defs>
<clipPath id="clip0">
<rect width="73" height="73" fill="white"/>
</clipPath>
</defs>
</svg>
