<svg width="69" height="100" viewBox="0 0 69 100" fill="none" xmlns="http://www.w3.org/2000/svg">
<path d="M38.7313 56.8382V31.0432C38.7313 30.2231 38.0668 29.5586 37.2458 29.5586C36.4257 29.5586 35.7612 30.2231 35.7612 31.0432V57.5882C35.7612 58.0688 35.9931 58.519 36.3845 58.7975C41.9303 62.7487 45.2407 69.1666 45.2407 75.9659C45.2407 87.5801 35.7917 97.0299 24.1767 97.0299C12.5625 97.0299 3.1127 87.5801 3.1127 75.9659C3.1127 69.1666 6.42386 62.7487 11.9697 58.7975C12.3603 58.519 12.593 58.0688 12.593 57.5882V14.5546C12.593 8.16727 17.7894 2.97012 24.1767 2.97012C30.564 2.97012 35.7612 8.16727 35.7612 14.5546V25.1022C35.7612 25.9224 36.4257 26.5877 37.2458 26.5877C38.0668 26.5877 38.7313 25.9224 38.7313 25.1022V14.5546C38.7313 6.52924 32.2021 0 24.1767 0C16.1513 0 9.6221 6.52924 9.6221 14.5546V56.8382C3.6727 61.3739 0.142578 68.4669 0.142578 75.9659C0.142578 89.2181 10.9244 100 24.1767 100C37.4297 100 48.2116 89.2181 48.2116 75.9659C48.2116 68.4662 44.6815 61.3739 38.7313 56.8382Z" fill="#7AC185"/>
<path d="M24.1768 89.109C21.4683 89.109 18.8659 88.2881 16.6504 86.7347C15.979 86.2632 15.052 86.4257 14.5813 87.0979C14.1105 87.7693 14.273 88.6955 14.9452 89.1662C17.6628 91.072 20.8549 92.0791 24.1768 92.0791C33.062 92.0791 40.2908 84.851 40.2908 75.9658C40.2908 70.7641 37.7563 65.8538 33.5121 62.8295L30.8105 60.9054V14.5545C30.8105 10.8962 27.8351 7.92078 24.1768 7.92078C20.5192 7.92078 17.543 10.8962 17.543 14.5545V60.9054L14.8422 62.8295C10.5972 65.8538 8.06348 70.7641 8.06348 75.9658C8.06348 79.19 9.01639 82.3036 10.82 84.9708C11.2793 85.6498 12.2024 85.8283 12.8822 85.3691C13.562 84.9098 13.7397 83.9866 13.2805 83.3068C11.811 81.1332 11.0336 78.5942 11.0336 75.9658C11.0336 71.7224 13.1019 67.7162 16.5657 65.2488L19.8898 62.8799C20.2812 62.6014 20.5139 62.1505 20.5139 61.6706V55.9364H27.8404V61.6706C27.8404 62.1505 28.0723 62.6014 28.4637 62.8799L31.7886 65.2488C35.2524 67.7162 37.3199 71.7224 37.3199 75.9658C37.3199 83.213 31.4239 89.109 24.1768 89.109ZM27.8404 30.2711H20.5139V21.894H27.8404V30.2711ZM20.5139 33.2412H27.8404V41.6183H20.5139V33.2412ZM24.1768 10.8909C26.197 10.8909 27.8404 12.5343 27.8404 14.5545V18.9239H20.5139V14.5545C20.5139 12.5343 22.1573 10.8909 24.1768 10.8909ZM20.5139 52.9663V44.5892H27.8404V52.9663H20.5139Z" fill="#7AC185"/>
<path d="M66.8541 33.2146C65.818 33.2146 65.2519 33.6121 65.1741 34.3925C64.9506 36.1435 64.6134 38.7878 60.4897 38.7878C57.1099 38.7878 55.4665 37.0712 55.4665 33.5396V22.2038C55.4665 18.721 57.119 16.9548 60.3768 16.9548C64.1663 16.9548 65.0772 19.2589 65.1741 21.1922C65.2161 21.9566 65.8135 22.3778 66.8541 22.3778C67.9184 22.3778 68.5349 22.0787 68.5349 20.5467C68.5349 16.6298 65.149 13.8947 60.3012 13.8947C55.0927 13.8947 52.105 16.9235 52.105 22.2038V33.5396C52.105 36.3777 52.916 38.5391 54.5159 39.9635C55.8998 41.1964 57.8873 41.848 60.2639 41.848C65.1337 41.848 68.5349 39.0663 68.5349 35.083C68.5349 33.5274 67.8917 33.2146 66.8541 33.2146Z" fill="#7AC185"/>
<path d="M54.205 9.65726C54.205 6.98239 52.0284 4.80573 49.3535 4.80573C46.6779 4.80573 44.502 6.98239 44.502 9.65726C44.502 12.3321 46.6779 14.5088 49.3535 14.5088C52.0284 14.5088 54.205 12.3321 54.205 9.65726ZM49.3535 11.5387C48.3159 11.5387 47.4721 10.6941 47.4721 9.65726C47.4721 8.61966 48.3159 7.77585 49.3535 7.77585C50.3903 7.77585 51.2341 8.61966 51.2341 9.65726C51.2341 10.6941 50.3903 11.5387 49.3535 11.5387Z" fill="#7AC185"/>
</svg>
