<svg width="324" height="324" viewBox="0 0 324 324" fill="none" xmlns="http://www.w3.org/2000/svg">
<g clip-path="url(#clip0)">
<path d="M133.118 287.225L132.166 291.875L133.083 287.22C130.512 286.713 128.016 288.387 127.509 290.958C127.002 293.531 128.676 296.025 131.249 296.532C131.256 296.534 131.328 296.547 131.335 296.549C131.637 296.606 131.936 296.636 132.233 296.636C134.465 296.636 136.455 295.054 136.887 292.779C137.382 290.204 135.693 287.717 133.118 287.225Z" fill="#C5D1E2" fill-opacity="0.35"/>
<path d="M169.406 288.75L169.878 293.472L169.391 288.753C166.783 289.02 164.887 291.351 165.156 293.958C165.406 296.401 167.468 298.22 169.87 298.22C170.033 298.22 170.199 298.21 170.362 298.195L170.493 298.181C173.089 297.876 174.93 295.536 174.641 292.94C174.349 290.347 172.001 288.478 169.406 288.75Z" fill="#C5D1E2" fill-opacity="0.35"/>
<path d="M151.237 289.348C151.237 289.348 151.17 289.346 151.168 289.346C148.553 289.227 146.367 291.259 146.249 293.877C146.133 296.495 148.189 298.712 150.807 298.831C150.881 298.836 150.953 298.836 151.027 298.836C153.548 298.836 155.65 296.851 155.763 294.305C155.882 291.687 153.857 289.467 151.237 289.348Z" fill="#C5D1E2" fill-opacity="0.35"/>
<path d="M115.587 282.402L115.527 282.38C113.06 281.495 110.371 282.785 109.486 285.252C108.599 287.719 109.909 290.448 112.376 291.336C112.907 291.526 113.449 291.615 113.98 291.615C115.925 291.615 117.752 290.411 118.447 288.473C119.334 286.006 118.054 283.287 115.587 282.402Z" fill="#C5D1E2" fill-opacity="0.35"/>
<path d="M187.317 285.428L188.486 290.028L187.302 285.433C184.764 286.086 183.236 288.674 183.888 291.212C184.44 293.353 186.368 294.777 188.481 294.777C188.874 294.777 189.272 294.727 189.67 294.624C189.69 294.619 189.774 294.596 189.796 294.591C192.315 293.904 193.789 291.316 193.116 288.792C192.444 286.271 189.846 284.77 187.317 285.428Z" fill="#C5D1E2" fill-opacity="0.35"/>
<path d="M204.475 279.443L206.356 283.799L204.46 279.448C202.057 280.496 200.957 283.292 202.003 285.695C202.781 287.482 204.527 288.547 206.358 288.547C206.989 288.547 207.634 288.419 208.249 288.152C208.269 288.142 208.346 288.11 208.365 288.1C210.746 287.025 211.797 284.236 210.734 281.851C209.671 279.463 206.868 278.393 204.475 279.443Z" fill="#C5D1E2" fill-opacity="0.35"/>
<path d="M97.4582 63.091C98.2195 63.091 98.9932 62.9081 99.7076 62.5275C102.021 61.294 102.894 58.4191 101.66 56.1054C100.427 53.7941 97.5546 52.9166 95.2409 54.1526L95.184 54.1822C92.8728 55.4157 92.0249 58.2757 93.2584 60.5895C94.1087 62.1863 95.76 63.091 97.4582 63.091Z" fill="#C5D1E2" fill-opacity="0.35"/>
<path d="M42.559 116.101C43.2635 116.47 44.0175 116.645 44.7615 116.645C46.4696 116.645 48.1209 115.721 48.9687 114.102L49.0528 113.936C50.2096 111.583 49.2406 108.738 46.8874 107.583C44.5514 106.431 41.7285 107.381 40.5568 109.702C39.3455 112.02 40.2404 114.885 42.559 116.101Z" fill="#C5D1E2" fill-opacity="0.35"/>
<path d="M35.8774 133.956C36.3817 134.127 36.8934 134.208 37.4002 134.208C39.3777 134.208 41.2242 132.96 41.8941 130.982L41.9559 130.795C42.7271 128.29 41.3206 125.633 38.8141 124.864C36.3298 124.098 33.6923 125.477 32.8988 127.949C32.0657 130.429 33.3981 133.118 35.8774 133.956Z" fill="#C5D1E2" fill-opacity="0.35"/>
<path d="M51.9228 99.4976C52.7657 100.111 53.7421 100.407 54.7111 100.407C56.177 100.407 57.6255 99.7275 58.5525 98.452L58.6143 98.3679C60.137 96.2371 59.6402 93.2807 57.5143 91.758C55.386 90.2329 52.4197 90.7223 50.892 92.8481L54.7161 95.6612L50.8772 92.8679C49.3347 94.9888 49.8044 97.9576 51.9228 99.4976Z" fill="#C5D1E2" fill-opacity="0.35"/>
<path d="M81.3458 73.3421C82.3419 73.3421 83.3455 73.0282 84.2033 72.3756C86.3193 70.8282 86.7766 67.8594 85.2291 65.7434C83.6792 63.6275 80.7105 63.1701 78.597 64.7176L78.4783 64.8041C76.392 66.3886 75.9767 69.3722 77.5612 71.461C78.4956 72.692 79.912 73.3421 81.3458 73.3421Z" fill="#C5D1E2" fill-opacity="0.35"/>
<path d="M31.6406 205.933C32.2685 207.973 34.1422 209.28 36.1692 209.28C36.6315 209.28 37.1036 209.211 37.5683 209.068C40.06 208.304 41.4665 205.664 40.72 203.167C40.0056 200.676 37.4225 199.212 34.9085 199.897C32.3797 200.587 30.8892 203.197 31.5788 205.726C31.5937 205.775 31.6258 205.884 31.6406 205.933Z" fill="#C5D1E2" fill-opacity="0.35"/>
<path d="M67.0089 85.8501C68.2424 85.8501 69.4759 85.373 70.4078 84.4238C72.2593 82.5698 72.2593 79.5639 70.4078 77.7125C68.5539 75.8585 65.548 75.8585 63.6941 77.7125L63.615 77.7916C61.7808 79.6628 61.8179 82.6637 63.6891 84.4979C64.6112 85.4026 65.81 85.8501 67.0089 85.8501Z" fill="#C5D1E2" fill-opacity="0.35"/>
<path d="M36.8859 185.241C36.5522 182.663 34.1965 180.834 31.6158 181.14C29.0153 181.452 27.1565 183.812 27.4655 186.415L27.4926 186.605C27.8387 188.964 29.8632 190.654 32.1794 190.654C32.4068 190.654 32.6392 190.637 32.874 190.603C35.4572 190.227 37.2493 187.824 36.8859 185.241Z" fill="#C5D1E2" fill-opacity="0.35"/>
<path d="M30.9238 171.648C30.9732 171.648 31.0202 171.65 31.0671 171.65C33.6231 171.65 35.7341 169.616 35.8083 167.043L35.8132 166.84C35.8132 164.217 33.6874 162.094 31.0671 162.094C28.4642 162.094 26.3532 164.185 26.321 166.778C26.2518 169.394 28.3109 171.571 30.9238 171.648Z" fill="#C5D1E2" fill-opacity="0.35"/>
<path d="M31.9645 152.614C32.2488 152.664 32.5281 152.688 32.8074 152.688C35.0618 152.688 37.0616 151.074 37.4744 148.778C37.4868 148.709 37.4967 148.639 37.5065 148.57C37.8897 145.977 36.0975 143.564 33.502 143.184C30.9386 142.803 28.5384 144.566 28.1256 147.122C27.6757 149.697 29.3912 152.152 31.9645 152.614Z" fill="#C5D1E2" fill-opacity="0.35"/>
<path d="M255.846 100.996C256.766 102.33 258.244 103.045 259.752 103.045C260.679 103.045 261.618 102.773 262.439 102.207C264.597 100.724 265.143 97.7672 263.66 95.6068L259.715 98.2468L263.645 95.5845C262.172 93.4142 259.22 92.8481 257.053 94.3189C254.882 95.7897 254.316 98.7412 255.787 100.912L255.846 100.996Z" fill="#C5D1E2" fill-opacity="0.35"/>
<path d="M280.084 148.755C277.478 149.047 275.604 151.398 275.899 154.003L275.923 154.208C276.262 156.574 278.294 158.282 280.617 158.282C280.84 158.282 281.067 158.267 281.295 158.235C283.868 157.867 285.663 155.496 285.329 152.926C285.03 150.328 282.672 148.464 280.084 148.755Z" fill="#C5D1E2" fill-opacity="0.35"/>
<path d="M272.074 135.363L272.094 135.424C272.702 137.493 274.593 138.833 276.645 138.833C277.087 138.833 277.537 138.771 277.985 138.638C280.501 137.899 281.94 135.261 281.201 132.745L281.181 132.683C280.442 130.167 277.804 128.728 275.288 129.47C272.774 130.209 271.335 132.846 272.074 135.363Z" fill="#C5D1E2" fill-opacity="0.35"/>
<path d="M265.37 117.617C266.198 119.3 267.892 120.282 269.652 120.282C270.351 120.282 271.063 120.126 271.733 119.795C274.084 118.638 275.06 115.81 273.901 113.457L269.6 115.461L273.896 113.447C272.784 111.074 269.958 110.053 267.585 111.165C265.212 112.277 264.189 115.103 265.301 117.476L265.37 117.617Z" fill="#C5D1E2" fill-opacity="0.35"/>
<path d="M243.892 86.1738C244.821 87.1231 246.05 87.5977 247.281 87.5977C248.48 87.5977 249.679 87.1478 250.603 86.2406C252.462 84.4212 252.504 81.4475 250.712 79.5738C248.935 77.658 245.939 77.5419 244.016 79.3167C242.09 81.094 241.971 84.0974 243.749 86.0231L243.892 86.1738Z" fill="#C5D1E2" fill-opacity="0.35"/>
<path d="M281.626 168.573C279.018 168.506 276.835 170.55 276.744 173.158C276.625 175.756 278.62 177.969 281.22 178.114C281.312 178.119 281.398 178.122 281.49 178.122C283.989 178.122 286.083 176.167 286.224 173.638L286.231 173.442C286.305 170.825 284.244 168.649 281.626 168.573Z" fill="#C5D1E2" fill-opacity="0.35"/>
<path d="M213.542 62.8687L213.655 62.9305C214.362 63.3062 215.121 63.4842 215.868 63.4842C217.556 63.4842 219.19 62.5745 220.048 60.9801C221.284 58.6788 220.414 55.8015 218.12 54.5556L215.823 58.7084L218.105 54.5457C215.806 53.285 212.921 54.128 211.66 56.4269C210.402 58.7233 211.243 61.6105 213.542 62.8687Z" fill="#C5D1E2" fill-opacity="0.35"/>
<path d="M229.595 73.2778L229.669 73.3347C230.526 73.9848 231.533 74.2988 232.534 74.2988C233.967 74.2988 235.384 73.6511 236.318 72.4201C237.903 70.3313 237.492 67.3551 235.406 65.7706L235.374 65.7484C233.295 64.1515 230.316 64.5421 228.719 66.621C227.123 68.6998 227.516 71.681 229.595 73.2778Z" fill="#C5D1E2" fill-opacity="0.35"/>
<path d="M321.071 240.424L298.791 218.105C296.895 216.207 294.376 215.161 291.694 215.161C289.015 215.161 286.493 216.207 284.6 218.105L284.083 218.622L282.62 217.159C280.813 215.347 279.414 213.238 278.465 210.942C278.381 210.638 278.269 210.341 278.126 210.062C277.399 208.02 277.021 205.847 277.021 203.615V197.302C277.454 197.529 277.926 197.695 278.433 197.781C278.704 197.828 278.974 197.851 279.241 197.851C281.493 197.851 283.485 196.244 283.903 193.96C284.41 191.394 282.746 188.9 280.178 188.386C279.048 188.161 277.931 188.356 276.991 188.865C276.7 182.122 273.944 175.823 269.148 171.018L247.534 149.366C242.684 144.509 236.234 141.834 229.375 141.834C224.065 141.834 219.008 143.444 214.741 146.422L212.447 144.116V89.8324C212.447 83.2892 210.072 76.976 205.76 72.0593C202.693 68.564 201.004 64.075 201.004 59.4179V55.4406H201.331C206.863 55.4406 211.364 50.9392 211.364 45.4045V13.8331C211.364 8.29849 206.863 3.79712 201.331 3.79712H112.675C107.143 3.79712 102.642 8.29849 102.642 13.8331V45.4045C102.642 50.9392 107.143 55.4406 112.675 55.4406H113.407V57.5219C113.407 62.6388 111.417 67.4492 107.806 71.0656L98.2367 80.6517C93.1594 85.7389 90.3636 92.4996 90.3636 99.6929V130.313C90.3636 134.473 91.3623 138.401 93.1198 141.881C86.8263 142.245 80.9604 144.867 76.4665 149.366L54.852 171.018C49.7747 176.105 46.9789 182.868 46.9789 190.059V203.615C46.9789 208.732 44.9915 213.542 41.38 217.159L39.9339 218.607C39.9265 218.612 39.9216 218.617 39.9166 218.622L39.4025 218.105C37.5065 216.207 34.9876 215.161 32.3056 215.161C29.626 215.161 27.1046 216.207 25.2112 218.105L2.92923 240.424C-0.97641 244.338 -0.97641 250.705 2.92923 254.618L10.5601 262.259C12.4115 264.115 15.4174 264.118 17.2713 262.266C19.1253 260.412 19.1302 257.409 17.2763 255.553L9.64792 247.909C9.43286 247.694 9.43286 247.346 9.64792 247.131L31.9298 224.812C32.1375 224.604 32.4761 224.602 32.6838 224.812L36.5573 228.693H36.5598L89.4515 281.676L95.3767 287.614C95.5918 287.829 95.5918 288.177 95.3767 288.392L73.0973 310.711C72.8871 310.921 72.5485 310.921 72.3409 310.711L30.7137 269.012C28.8622 267.156 25.8563 267.153 24.0024 269.005C22.146 270.859 22.1435 273.862 23.995 275.719L65.6246 317.418C67.5181 319.316 70.0395 320.362 72.7215 320.362C75.4011 320.362 77.92 319.316 79.8159 317.418L102.095 295.099C106.001 291.188 106.001 284.82 102.095 280.907L101.853 280.665L104.664 277.849C107.946 274.559 112.307 272.582 116.942 272.283C123.465 271.86 129.603 269.077 134.223 264.447L154.691 243.935C160.593 242.385 165.189 237.577 166.437 231.555C168.541 232.556 170.892 233.12 173.373 233.12C182.299 233.12 189.562 225.85 189.562 216.912V205.642C191.604 206.574 193.871 207.098 196.258 207.098C205.185 207.098 212.445 199.828 212.445 190.89V157.573L227.044 172.244C227.971 173.176 229.189 173.641 230.408 173.641C231.619 173.641 232.831 173.181 233.757 172.259C235.614 170.41 235.621 167.406 233.772 165.547L221.601 153.316C223.956 152.019 226.611 151.326 229.375 151.326C233.696 151.326 237.76 153.012 240.815 156.075L262.429 177.724C265.717 181.019 267.529 185.399 267.529 190.059V203.615C267.529 211.266 270.503 218.457 275.901 223.865L277.375 225.341L270.49 232.237L228.853 273.946L226.532 271.62C226.507 271.598 226.485 271.573 226.46 271.551L226.052 271.141C221.138 266.219 214.61 263.26 207.674 262.81C203.454 262.536 199.484 260.736 196.481 257.73L180.885 242.219C179.027 240.37 176.021 240.378 174.172 242.236C172.325 244.095 172.333 247.101 174.192 248.948L189.777 264.447C194.397 269.077 200.535 271.86 207.061 272.283C211.693 272.582 216.054 274.559 219.336 277.847L219.566 278.077C219.69 278.218 219.821 278.349 219.959 278.472L222.147 280.662L221.905 280.907C217.999 284.82 217.999 291.185 221.905 295.099L244.184 317.418C246.08 319.316 248.599 320.362 251.281 320.362C253.961 320.362 256.482 319.316 258.378 317.418L321.071 254.616C324.976 250.703 324.976 244.338 321.071 240.424ZM280.202 193.231L280.113 193.216L279.248 193.04L280.202 193.231ZM127.504 257.74C124.516 260.736 120.546 262.536 116.329 262.81C109.39 263.26 102.862 266.219 97.9475 271.141L95.1468 273.946L92.6255 271.42C92.5933 271.388 92.5612 271.353 92.5291 271.324L46.6254 225.341L48.0987 223.865C53.4974 218.457 56.4711 211.266 56.4711 203.615V190.059C56.4711 185.399 58.2805 181.019 61.5707 177.724L83.1852 156.075C86.2405 153.012 90.3043 151.326 94.6252 151.326C97.3963 151.326 100.061 152.024 102.424 153.331L90.2326 165.543C88.3812 167.396 88.3836 170.402 90.2376 172.254C91.1646 173.178 92.3783 173.641 93.592 173.641C94.8082 173.641 96.0244 173.176 96.9513 172.249L111.513 157.66V216.912C111.513 225.85 118.776 233.12 127.702 233.12C130.218 233.12 132.601 232.542 134.727 231.513C135.691 236.217 138.697 240.182 142.771 242.442L127.504 257.74ZM202.955 190.892C202.955 194.595 199.949 197.608 196.258 197.608C192.565 197.608 189.562 194.595 189.562 190.892V137.951C189.562 135.331 187.439 133.205 184.816 133.205C182.193 133.205 180.07 135.331 180.07 137.951V216.914C180.07 220.617 177.066 223.628 173.373 223.628C170.058 223.628 167.307 221.2 166.776 218.024V137.897C166.776 135.274 164.652 133.15 162.03 133.15C161.187 133.15 160.393 133.373 159.706 133.759C158.206 134.557 157.185 136.134 157.185 137.951V216.912C157.185 217.515 157.219 218.105 157.284 218.691V228.255C157.284 231.958 154.28 234.971 150.587 234.971C146.897 234.971 143.893 231.958 143.893 228.255V137.84C143.893 135.219 141.767 133.094 139.147 133.094C136.524 133.094 134.398 135.219 134.398 137.84V216.912C134.398 220.615 131.395 223.628 127.705 223.628C124.011 223.628 121.008 220.615 121.008 216.912V128.627C121.008 126.004 118.882 123.878 116.262 123.878C113.639 123.878 111.516 126.004 111.516 128.627V144.956C111.118 145.085 110.732 145.265 110.374 145.503C104.236 143.196 99.8558 137.259 99.8558 130.313V99.6929C99.8558 95.0334 101.668 90.6531 104.955 87.358L114.524 77.7719C119.925 72.3633 122.899 65.1725 122.899 57.5219V55.4406H132.441C135.063 55.4406 137.187 53.3147 137.187 50.6945C137.187 48.0717 135.063 45.9484 132.441 45.9484H112.675C112.376 45.9484 112.134 45.7036 112.134 45.4045V13.8331C112.134 13.534 112.376 13.2893 112.675 13.2893H201.328C201.63 13.2893 201.872 13.534 201.872 13.8331V45.4045C201.872 45.7061 201.63 45.9484 201.328 45.9484H154.723C152.102 45.9484 149.977 48.0717 149.977 50.6945C149.977 53.3147 152.102 55.4406 154.723 55.4406H191.512V59.4179C191.512 66.3788 194.036 73.0901 198.622 78.3207C201.415 81.5045 202.955 85.5931 202.955 89.8324V190.892ZM314.352 247.909L251.659 310.711C251.555 310.817 251.429 310.869 251.281 310.869C251.135 310.869 251.009 310.817 250.903 310.711L228.623 288.392C228.408 288.177 228.408 287.829 228.623 287.614L232.21 284.019L232.213 284.017L268.607 247.561L291.316 224.812C291.524 224.602 291.863 224.602 292.07 224.812L314.352 247.131C314.567 247.346 314.567 247.694 314.352 247.909Z" fill="#C5D1E2" fill-opacity="0.35"/>
<path d="M127.702 24.5564C124.916 24.5564 122.649 26.8281 122.649 29.6189C122.649 32.4122 124.916 34.6814 127.702 34.6814C130.49 34.6814 132.757 32.4122 132.757 29.6189C132.757 26.8281 130.49 24.5564 127.702 24.5564Z" fill="#C5D1E2" fill-opacity="0.35"/>
<path d="M293.246 240.904C290.458 240.904 288.191 243.175 288.191 245.966C288.191 248.757 290.458 251.029 293.246 251.029C296.032 251.029 298.299 248.757 298.299 245.966C298.299 243.175 296.032 240.904 293.246 240.904Z" fill="#C5D1E2" fill-opacity="0.35"/>
<path d="M79.0916 289.324C79.0916 286.533 76.8248 284.261 74.039 284.261C71.2506 284.261 68.9839 286.533 68.9839 289.324C68.9839 292.115 71.2506 294.386 74.039 294.386C76.8248 294.386 79.0916 292.115 79.0916 289.324Z" fill="#C5D1E2" fill-opacity="0.35"/>
</g>
<defs>
<clipPath id="clip0">
<rect width="324" height="324" fill="white"/>
</clipPath>
</defs>
</svg>
