<svg width="69" height="69" viewBox="0 0 69 69" fill="none" xmlns="http://www.w3.org/2000/svg">
<path d="M22.5879 1.20332H30.32L11.1905 33.643H3.47903L22.5879 1.20332Z" fill="white"/>
<path d="M30.999 2.09892L34.1868 7.49196L30.1848 14.207L26.9294 8.8485L30.999 2.09892Z" fill="white"/>
<path d="M38.7326 1.20332H46.7021L27.5739 33.6775L19.7383 33.643L38.7326 1.20332Z" fill="white"/>
<path d="M47.2443 2.06445L43.2423 8.78091L62.2711 40.7334L66.2345 34.1536L47.2443 2.06445Z" fill="white"/>
<path d="M39.0374 15.9045L35.1361 22.5174L49.8897 47.5506H57.8951L39.0374 15.9045Z" fill="white"/>
<path d="M51.1801 34.5579H57.5888L61.5935 41.342H55.2152L51.1801 34.5579Z" fill="white"/>
<path d="M3.67233 34.5359L41.3063 34.5124L45.3387 41.3296L7.77507 41.3558L3.67233 34.5359Z" fill="white"/>
<path d="M14.6627 42.2252H22.519L19.4057 47.4871L11.4528 47.4858L14.6627 42.2252Z" fill="white"/>
<path d="M11.8776 48.4794L15.9597 55.4083H53.6158L57.5805 48.4794H11.8776Z" fill="white"/>
<path d="M3.97441 59.2613H5.99749V62.4119H9.30397V59.2613H11.316V67.838H9.30535V64.2417H5.99749V67.838H3.97441V59.2613Z" fill="white"/>
<path d="M13.3155 59.2613H18.5968V61.0305H15.3013V62.5802H18.1234V64.337H15.3013V66.033H18.6451V67.838H13.3155V59.2613Z" fill="white"/>
<path d="M20.2322 58.9826H20.4268L25.7701 63.9865V59.2613H27.6594V68.1665H27.4772L22.1228 63.1626V67.838H20.2322V58.9826Z" fill="white"/>
<path d="M29.6452 58.9826H29.8398L35.1832 63.9865V59.2613H37.0738V68.1665H36.8916L31.5372 63.1626V67.838H29.6466V58.9826H29.6452Z" fill="white"/>
<path d="M39.0594 59.2613H41.106V65.9971H44.4511V67.838H39.0594V59.2613Z" fill="white"/>
<path d="M45.5042 59.2613H47.5521V67.838H45.5042V59.2613Z" fill="white"/>
<path d="M53.5839 60.8497C52.1432 60.8497 51.1137 61.9523 51.1137 63.5269C51.1137 65.1015 52.1197 66.1668 53.5839 66.1668C54.4561 66.1668 55.3172 65.8025 56.1769 65.0766L56.0431 67.3536C55.3172 67.8504 54.4202 68.1182 53.4873 68.1182C52.4703 68.1182 51.5236 67.7911 50.7494 67.1853C49.6592 66.3242 49.041 65.0394 49.041 63.549C49.041 62.278 49.4909 61.1395 50.3133 60.2908C51.1482 59.4435 52.2757 58.9715 53.4997 58.9715C54.4561 58.9715 55.3296 59.2365 56.1286 59.783L55.9106 61.9758C55.1833 61.2237 54.4326 60.8497 53.5839 60.8497Z" fill="white"/>
<path d="M57.5335 59.2613H59.5566V62.4119H62.8644V59.2613H64.8737V67.838H62.8644V64.2417H59.5566V67.838H57.5335V59.2613Z" fill="white"/>
</svg>
