<svg width="83" height="24" viewBox="0 0 83 24" fill="none" xmlns="http://www.w3.org/2000/svg">
<path d="M9.76931 8.95125C9.77069 9.11171 9.76254 9.2721 9.74488 9.43163C9.73381 9.5409 9.7089 9.64839 9.67074 9.75159C9.64593 9.8209 9.60343 9.88279 9.54732 9.9313C9.50164 9.96877 9.44411 9.9894 9.38464 9.98964H6.18604V20.1093C6.18615 20.1731 6.16346 20.2349 6.12193 20.2839C6.06451 20.3446 5.99093 20.3883 5.90953 20.41C5.77932 20.4489 5.6455 20.4749 5.51004 20.4876C5.302 20.509 5.0929 20.5187 4.88375 20.5168C4.67445 20.5187 4.4652 20.509 4.25703 20.4876C4.12157 20.4748 3.98774 20.4488 3.85753 20.41C3.77617 20.3885 3.70267 20.3448 3.64557 20.2839C3.60371 20.2351 3.58097 20.1732 3.58146 20.1093V9.98964H0.384602C0.323682 9.99089 0.264407 9.97014 0.217999 9.9313C0.164424 9.88158 0.123745 9.81996 0.0993714 9.75159C0.0608778 9.64846 0.0358189 9.54095 0.0247927 9.43163C0.00675066 9.27213 -0.00155076 9.11172 -6.69165e-05 8.95125C-0.00159046 8.78607 0.00671023 8.62094 0.0247927 8.45672C0.0352635 8.34571 0.0600306 8.23647 0.0984991 8.1316C0.122231 8.06419 0.163418 8.00403 0.217999 7.95704C0.265848 7.92067 0.325027 7.90173 0.385475 7.90343H9.38246C9.44118 7.90333 9.49833 7.92216 9.54514 7.95704C9.60191 8.00287 9.64464 8.0633 9.66856 8.1316C9.707 8.2365 9.7319 8.34572 9.7427 8.45672C9.76113 8.62093 9.77001 8.78604 9.76931 8.95125Z" fill="#011634"/>
<path d="M19.626 15.7135C19.626 16.4507 19.5273 17.1233 19.3299 17.7315C19.1482 18.3126 18.842 18.8486 18.4319 19.3035C18.0159 19.7537 17.4989 20.1025 16.922 20.3221C16.3169 20.5615 15.61 20.6811 14.8011 20.6811C14.0181 20.6811 13.3373 20.5745 12.7587 20.3612C12.1801 20.1479 11.7003 19.8373 11.3194 19.4296C10.9359 19.0221 10.6519 18.5216 10.4672 17.928C10.2826 17.3344 10.1906 16.6551 10.1912 15.8902C10.1912 15.1528 10.2915 14.4786 10.4921 13.8675C10.6753 13.2861 10.9831 12.75 11.3949 12.2955C11.8108 11.848 12.3258 11.5005 12.9 11.2799C13.5018 11.0411 14.2074 10.9215 15.0165 10.9209C15.8054 10.9209 16.4894 11.0261 17.0685 11.2366C17.6477 11.447 18.1262 11.7558 18.5039 12.163C18.8818 12.5705 19.163 13.0717 19.3473 13.6668C19.5317 14.2618 19.6246 14.9441 19.626 15.7135ZM17.0707 15.8105C17.0732 15.4152 17.038 15.0206 16.9656 14.6318C16.9078 14.3015 16.7896 13.9843 16.6167 13.6955C16.4579 13.4356 16.2323 13.2214 15.9625 13.0744C15.6895 12.926 15.3458 12.8517 14.9315 12.8514C14.5631 12.8514 14.2408 12.9178 13.9646 13.0504C13.6894 13.182 13.4545 13.3828 13.2838 13.6325C13.0952 13.9135 12.9598 14.2258 12.8843 14.5542C12.7891 14.9571 12.7432 15.3698 12.7473 15.7834C12.7443 16.1788 12.7805 16.5736 12.8555 16.9621C12.9162 17.2916 13.0342 17.6083 13.2044 17.8984C13.3604 18.1593 13.5868 18.3726 13.8586 18.5147C14.1348 18.66 14.4767 18.7328 14.8844 18.733C15.2595 18.733 15.5851 18.6667 15.8613 18.534C16.1355 18.4032 16.3702 18.2042 16.5421 17.9567C16.7312 17.6782 16.8651 17.3671 16.9368 17.0397C17.0284 16.6363 17.0726 16.2238 17.0685 15.8105H17.0707Z" fill="#011634"/>
<path d="M30.0817 15.7135C30.0817 16.4507 29.983 17.1233 29.7856 17.7315C29.604 18.3126 29.298 18.8486 28.888 19.3035C28.472 19.7536 27.9553 20.1024 27.3786 20.3221C26.7732 20.5615 26.0661 20.6811 25.2572 20.6811C24.4742 20.6811 23.7935 20.5745 23.2152 20.3612C22.6369 20.1479 22.1572 19.8373 21.776 19.4296C21.3937 19.0221 21.1105 18.5216 20.9264 17.928C20.7424 17.3344 20.6502 16.6551 20.6499 15.8902C20.6499 15.1528 20.7502 14.4786 20.9508 13.8675C21.1342 13.2861 21.442 12.7501 21.8536 12.2955C22.2695 11.8482 22.7843 11.5007 23.3583 11.2799C23.9601 11.0411 24.6655 10.9215 25.4744 10.9209C26.2638 10.9209 26.9471 11.0261 27.5242 11.2366C28.1014 11.447 28.58 11.7558 28.96 12.163C29.338 12.5705 29.6191 13.0717 29.8035 13.6668C29.9878 14.2618 30.0805 14.9441 30.0817 15.7135ZM27.5264 15.8105C27.5292 15.4153 27.4946 15.0207 27.423 14.6318C27.3648 14.3016 27.2467 13.9845 27.0741 13.6955C26.9153 13.4356 26.6896 13.2214 26.4199 13.0744C26.1469 12.926 25.8032 12.8517 25.3889 12.8514C25.0208 12.8514 24.6987 12.9178 24.4224 13.0504C24.1472 13.1819 23.9123 13.3827 23.7416 13.6325C23.5527 13.9134 23.4172 14.2257 23.3417 14.5542C23.249 14.9568 23.205 15.3689 23.2109 15.7817C23.2079 16.1771 23.2443 16.5719 23.3195 16.9604C23.3802 17.2899 23.4982 17.6066 23.6684 17.8967C23.8245 18.1575 24.0509 18.3708 24.3226 18.513C24.5991 18.6583 24.9412 18.731 25.3488 18.7313C25.7236 18.7313 26.0491 18.665 26.3253 18.5323C26.5995 18.4016 26.8342 18.2025 27.0061 17.955C27.1951 17.6765 27.329 17.3654 27.4008 17.038C27.4901 16.6349 27.5323 16.223 27.5264 15.8105Z" fill="#011634"/>
<path d="M39.5735 12.0754C39.5735 12.3859 39.5373 12.6155 39.4649 12.7642C39.3925 12.9134 39.3035 12.9876 39.1984 12.9876H38.1617C38.3039 13.139 38.41 13.3197 38.4722 13.5165C38.5352 13.7159 38.5669 13.9236 38.566 14.1324C38.566 14.6368 38.4805 15.0847 38.3096 15.4762C38.146 15.8576 37.8944 16.1964 37.5747 16.4657C37.2361 16.7445 36.8433 16.9526 36.4202 17.0773C35.9324 17.2215 35.425 17.2918 34.9156 17.2857C34.6422 17.2871 34.3699 17.2528 34.1057 17.1837C33.8492 17.1159 33.6519 17.0367 33.5138 16.946C33.4302 17.0367 33.359 17.1376 33.3019 17.2463C33.2384 17.366 33.2062 17.4994 33.2081 17.6344C33.2081 17.8223 33.292 17.976 33.4598 18.0955C33.6275 18.215 33.8626 18.2814 34.165 18.2945L36.306 18.3722C36.7589 18.384 37.2083 18.4541 37.6427 18.5806C38.0027 18.6838 38.3384 18.8557 38.631 19.0863C38.8923 19.2976 39.1011 19.5647 39.2416 19.8673C39.3877 20.1943 39.46 20.5486 39.4535 20.9057C39.4553 21.3248 39.3573 21.7384 39.1674 22.1135C38.9659 22.5053 38.6715 22.8436 38.3091 23.1C37.9276 23.3779 37.4492 23.5978 36.8738 23.7597C36.2984 23.9215 35.6259 24.0024 34.8563 24.0024C34.1061 24.0024 33.4664 23.9442 32.9373 23.8279C32.4081 23.7115 31.974 23.5498 31.635 23.3428C31.2962 23.1358 31.0491 22.8883 30.8936 22.6003C30.7382 22.3086 30.6586 21.9835 30.662 21.6542C30.6614 21.4467 30.6902 21.2401 30.7475 21.0404C30.8042 20.8446 30.8871 20.6572 30.9939 20.4828C31.1073 20.2987 31.2415 20.1278 31.3938 19.9733C31.5611 19.8034 31.7426 19.6475 31.9363 19.5075C31.6669 19.3709 31.4412 19.1635 31.2844 18.9083C31.1276 18.6531 31.0459 18.3602 31.0484 18.0621C31.0436 17.6975 31.1353 17.3381 31.3144 17.019C31.4962 16.7006 31.7299 16.4137 32.0061 16.1697C31.7704 15.9355 31.5828 15.6588 31.4535 15.3548C31.3157 15.0383 31.2467 14.6437 31.2464 14.171C31.2464 13.6666 31.3368 13.2155 31.5177 12.8178C31.6909 12.4306 31.9492 12.0859 32.2739 11.8086C32.6122 11.5248 33.0047 11.3105 33.4284 11.1781C33.9066 11.0279 34.4062 10.9542 34.9082 10.9598C35.1737 10.9592 35.4389 10.9754 35.7024 11.0082C35.9403 11.0377 36.1759 11.0832 36.4076 11.1442H39.1988C39.3105 11.1442 39.4012 11.2154 39.4701 11.3586C39.539 11.5019 39.5735 11.7391 39.5735 12.0754ZM36.9689 21.031C36.9689 20.7399 36.8504 20.5167 36.6134 20.3614C36.3765 20.2062 36.051 20.1221 35.6369 20.1092L33.871 20.0608C33.7221 20.1641 33.5848 20.2827 33.4615 20.4146C33.369 20.5151 33.2864 20.624 33.2147 20.7397C33.1568 20.8323 33.115 20.9338 33.0912 21.04C33.0715 21.1389 33.0618 21.2394 33.062 21.3402C33.062 21.6636 33.228 21.9094 33.5601 22.0775C33.8921 22.2456 34.3608 22.3297 34.9662 22.3297C35.3407 22.3297 35.6563 22.2925 35.913 22.2182C36.1373 22.1591 36.3482 22.0587 36.5345 21.9222C36.68 21.8148 36.7954 21.6729 36.8699 21.5096C36.9356 21.3583 36.9693 21.1955 36.9689 21.031ZM36.3866 14.1225C36.3866 13.6573 36.2558 13.2952 35.9941 13.0361C35.7324 12.777 35.3609 12.6477 34.8794 12.6479C34.6593 12.6434 34.4408 12.6847 34.2383 12.7693C34.0622 12.8442 33.9054 12.9569 33.7794 13.0992C33.6559 13.2407 33.5636 13.4059 33.5082 13.5843C33.4491 13.7711 33.4197 13.9659 33.4209 14.1616C33.4209 14.6016 33.5518 14.9493 33.8135 15.2047C34.0751 15.46 34.4402 15.5877 34.9086 15.5877C35.1314 15.5927 35.3529 15.5532 35.5597 15.4715C35.7351 15.3998 35.8919 15.2903 36.0186 15.1511C36.1414 15.0133 36.2353 14.8529 36.2946 14.6793C36.3566 14.5 36.3877 14.3119 36.3866 14.1225Z" fill="#011634"/>
<path d="M48.3147 20.1586C48.3168 20.1995 48.309 20.2403 48.2918 20.2776C48.2747 20.3149 48.2487 20.3476 48.2161 20.3731C48.1504 20.4251 48.0468 20.4624 47.9052 20.485C47.6975 20.5114 47.4882 20.5228 47.2789 20.5189C47.0629 20.5235 46.8468 20.5122 46.6325 20.485C46.4979 20.4621 46.4026 20.4248 46.3464 20.3731C46.3178 20.3452 46.2955 20.3117 46.281 20.2747C46.2666 20.2378 46.2603 20.1982 46.2627 20.1586V19.4689C45.9124 19.8422 45.4919 20.1453 45.0245 20.3615C44.5403 20.5793 44.013 20.6885 43.4806 20.6815C43.0447 20.6858 42.6106 20.6252 42.1932 20.5017C41.8215 20.3926 41.476 20.2112 41.177 19.9682C40.8889 19.73 40.6609 19.4293 40.511 19.0898C40.3531 18.7407 40.2742 18.3332 40.2742 17.8674C40.2742 17.363 40.3745 16.9248 40.5751 16.5528C40.7845 16.1717 41.0946 15.8533 41.4727 15.6311C41.8704 15.3897 42.3659 15.2104 42.959 15.0932C43.5521 14.976 44.2393 14.9176 45.0206 14.9182H45.8793V14.3945C45.8825 14.1544 45.8538 13.9149 45.7939 13.6821C45.7459 13.4926 45.651 13.3177 45.5178 13.173C45.3769 13.03 45.1999 12.9264 45.0049 12.8728C44.7464 12.8026 44.4788 12.7699 44.2107 12.7758C43.8362 12.7703 43.4627 12.8155 43.1007 12.9101C42.8059 12.9896 42.5174 13.09 42.2372 13.2103C41.9872 13.3207 41.7784 13.4208 41.6109 13.5105C41.4434 13.6003 41.3069 13.6456 41.2014 13.6465C41.1311 13.6472 41.0629 13.6231 41.0091 13.5787C40.9478 13.5258 40.9003 13.4592 40.8708 13.3844C40.8303 13.2846 40.8021 13.1804 40.7871 13.0739C40.7665 12.9391 40.7565 12.8028 40.7574 12.6664C40.7529 12.5066 40.7695 12.3469 40.8067 12.1912C40.841 12.0722 40.9055 11.9637 40.9942 11.876C41.0861 11.7819 41.2472 11.6784 41.4775 11.5654C41.7386 11.4401 42.009 11.3346 42.2865 11.2498C42.6177 11.1478 42.9556 11.0684 43.2979 11.0121C43.6711 10.9501 44.049 10.9192 44.4275 10.9199C45.1183 10.9199 45.7087 10.9863 46.1986 11.1189C46.6885 11.2516 47.0915 11.4556 47.4076 11.731C47.7307 12.0175 47.9693 12.3846 48.0979 12.7934C48.2433 13.2272 48.316 13.7419 48.316 14.3375L48.3147 20.1586ZM45.878 16.452H44.9308C44.5866 16.4463 44.2428 16.4751 43.9045 16.5378C43.6219 16.595 43.3918 16.6823 43.2141 16.7998C43.0481 16.9036 42.9134 17.0494 42.8242 17.2219C42.7391 17.3991 42.6969 17.5934 42.7008 17.7893C42.7008 18.1519 42.8171 18.4366 43.0497 18.6433C43.2823 18.85 43.6062 18.9535 44.0214 18.9538C44.3605 18.9563 44.6936 18.8655 44.9831 18.6918C45.2759 18.5173 45.5736 18.2618 45.8763 17.9253L45.878 16.452Z" fill="#011634"/>
<path d="M56.0401 12.2789C56.0401 12.512 56.0336 12.7028 56.0205 12.8515C56.0129 12.9696 55.9931 13.0866 55.9612 13.2007C55.9454 13.2679 55.9094 13.3289 55.8578 13.3757C55.8104 13.4095 55.7528 13.4267 55.6943 13.4246C55.6334 13.4232 55.5732 13.4116 55.5163 13.3902C55.4509 13.3679 55.3768 13.3435 55.2948 13.3178C55.2128 13.292 55.1203 13.2676 55.0231 13.2448C54.9163 13.2213 54.8071 13.2099 54.6977 13.211C54.5555 13.2117 54.4147 13.2397 54.2834 13.2933C54.1285 13.3583 53.9839 13.445 53.8542 13.5507C53.6834 13.6894 53.528 13.8455 53.3906 14.0164C53.2037 14.2456 53.0307 14.4853 52.8725 14.7344V20.1284C52.874 20.1907 52.853 20.2515 52.8132 20.3C52.7584 20.358 52.6884 20.4 52.6108 20.4213C52.4874 20.459 52.3601 20.4833 52.2314 20.4938C51.8308 20.5264 51.4282 20.5264 51.0276 20.4938C50.8987 20.4833 50.7713 20.459 50.6478 20.4213C50.5703 20.3999 50.5003 20.3579 50.4454 20.3C50.4058 20.2514 50.3848 20.1907 50.3861 20.1284V11.4739C50.3845 11.4131 50.4017 11.3533 50.4354 11.3023C50.4809 11.2451 50.5429 11.2028 50.6133 11.1809C50.7202 11.1438 50.8312 11.1193 50.9439 11.108C51.1125 11.0904 51.282 11.0824 51.4516 11.084C51.6263 11.0823 51.8011 11.0903 51.9749 11.108C52.0848 11.1177 52.1928 11.1422 52.2959 11.1809C52.3607 11.2054 52.4172 11.2475 52.4586 11.3023C52.4923 11.3533 52.5095 11.4131 52.5079 11.4739V12.5509C52.7047 12.2691 52.9225 12.002 53.1595 11.7518C53.3352 11.5657 53.5304 11.3982 53.7417 11.2521C53.9098 11.1366 54.0964 11.0496 54.2938 10.9948C54.474 10.9468 54.6598 10.9223 54.8464 10.9219C54.9337 10.9219 55.0239 10.927 55.1229 10.9365C55.2255 10.9471 55.3274 10.9633 55.4282 10.9849C55.5219 11.0046 55.6142 11.0305 55.7043 11.0626C55.7676 11.0827 55.8267 11.1139 55.8787 11.1548C55.9126 11.1843 55.9396 11.2208 55.9577 11.2616C55.9776 11.3133 55.9922 11.3669 56.0013 11.4216C56.0179 11.5228 56.0278 11.6249 56.031 11.7274C56.0374 11.8623 56.0404 12.0462 56.0401 12.2789Z" fill="#011634"/>
<path d="M59.8375 8.54365C59.8375 9.03518 59.7357 9.37473 59.5322 9.5623C59.3286 9.74988 58.9506 9.84367 58.3982 9.84367C57.8391 9.84367 57.4626 9.75317 57.2686 9.57217C57.0747 9.39117 56.9776 9.06448 56.9773 8.59211C56.9773 8.10058 57.0776 7.75946 57.2782 7.56874C57.4788 7.37802 57.8587 7.28251 58.4178 7.28223C58.9703 7.28223 59.3452 7.37444 59.5426 7.55887C59.74 7.7433 59.8383 8.07156 59.8375 8.54365ZM59.6503 20.1285C59.6517 20.1907 59.6307 20.2515 59.591 20.3C59.5362 20.358 59.4662 20.4 59.3887 20.4214C59.2651 20.4591 59.1377 20.4834 59.0088 20.4939C58.6084 20.5265 58.2059 20.5265 57.8055 20.4939C57.6766 20.4834 57.5492 20.4591 57.4256 20.4214C57.3481 20.4001 57.278 20.3581 57.2233 20.3C57.1834 20.2516 57.1624 20.1908 57.164 20.1285V11.4945C57.1624 11.4322 57.1834 11.3714 57.2233 11.323C57.2784 11.2643 57.3481 11.2208 57.4256 11.1969C57.5486 11.155 57.6761 11.1274 57.8055 11.1145C58.2056 11.0756 58.6087 11.0756 59.0088 11.1145C59.1382 11.1275 59.2657 11.1551 59.3887 11.1969C59.4661 11.2209 59.5358 11.2644 59.591 11.323C59.6307 11.3715 59.6517 11.4323 59.6503 11.4945V20.1285Z" fill="#011634"/>
<path d="M70.1301 20.1283C70.1316 20.1905 70.1107 20.2512 70.0712 20.2998C70.0177 20.3571 69.9494 20.399 69.8736 20.4212C69.7502 20.4595 69.6228 20.4839 69.4938 20.4937C69.3327 20.51 69.1338 20.5182 68.8971 20.5182C68.6538 20.5182 68.4515 20.51 68.2905 20.4937C68.1614 20.4839 68.034 20.4595 67.9106 20.4212C67.8348 20.3991 67.7665 20.3572 67.713 20.2998C67.6734 20.2513 67.6524 20.1905 67.6537 20.1283V15.1898C67.6537 14.7695 67.6226 14.4395 67.5604 14.1999C67.5065 13.9807 67.4146 13.7724 67.2887 13.584C67.1729 13.415 67.0151 13.278 66.8303 13.186C66.6266 13.089 66.4024 13.0407 66.1761 13.0453C65.8603 13.0453 65.5414 13.1585 65.2192 13.385C64.8971 13.6114 64.5617 13.9414 64.2131 14.3749V20.1283C64.2144 20.1905 64.1934 20.2513 64.1537 20.2998C64.0989 20.3578 64.0289 20.3998 63.9514 20.4212C63.8278 20.4589 63.7004 20.4832 63.5715 20.4937C63.171 20.5263 62.7683 20.5263 62.3678 20.4937C62.2389 20.4832 62.1115 20.4589 61.9879 20.4212C61.9105 20.3998 61.8406 20.3578 61.786 20.2998C61.7461 20.2514 61.7251 20.1906 61.7267 20.1283V11.4738C61.7251 11.413 61.7422 11.3532 61.7759 11.3022C61.8212 11.2449 61.8831 11.2026 61.9535 11.1808C62.059 11.1442 62.1684 11.1199 62.2797 11.1083C62.4484 11.0907 62.6181 11.0827 62.7878 11.0843C62.9626 11.0826 63.1373 11.0906 63.3111 11.1083C63.4209 11.118 63.5288 11.1425 63.6317 11.1812C63.6966 11.2057 63.7532 11.2478 63.7948 11.3026C63.8285 11.3536 63.8457 11.4134 63.8441 11.4742V12.4735C64.3302 11.956 64.8245 11.5678 65.3269 11.3091C65.8113 11.055 66.3516 10.9217 66.9005 10.9209C67.4989 10.9209 68.0038 11.018 68.4152 11.2121C68.8081 11.3916 69.1501 11.6632 69.4113 12.003C69.6723 12.3524 69.8586 12.7501 69.9591 13.1722C70.0708 13.6183 70.1266 14.1552 70.1266 14.7828L70.1301 20.1283Z" fill="#011634"/>
<path d="M83 0L82.3236 3.32576L78.94 6.65108V8.64636L76.236 10.6421C76.2494 10.6421 76.3269 10.4515 76.4685 10.0703C76.6222 9.63823 76.7354 9.19316 76.8065 8.74072C76.8907 8.23269 76.8322 7.71169 76.6372 7.23397L72.18 10.6421L75.5818 6.33927C75.3847 6.27007 75.1064 6.24591 74.747 6.26678C74.3877 6.28765 74.0844 6.30838 73.8373 6.32897C73.5602 6.35436 73.285 6.39604 73.013 6.45378C72.71 6.51583 72.5093 6.56087 72.4107 6.58889C72.3121 6.61691 72.2346 6.63764 72.1782 6.65108L74.2071 3.99185H76.236L79.6174 0.666524L83 0Z" fill="#011634"/>
</svg>
